<svg width="32" height="32" viewBox="0 0 32 32" fill="none" xmlns="http://www.w3.org/2000/svg">
<path d="M14.3333 4.33333C14.3333 6.175 12.095 7.66667 9.33333 7.66667C6.57167 7.66667 4.33333 6.175 4.33333 4.33333C4.33333 2.49167 6.57167 1 9.33333 1C12.095 1 14.3333 2.49167 14.3333 4.33333ZM14.3333 4.33333H29.3333M2.66667 14.3333H29.3333C29.7754 14.3333 30.1993 14.5089 30.5118 14.8215C30.8244 15.134 31 15.558 31 16V16.8333C31 19.3333 26.805 26.1217 24.3333 27.6667V29.3333C24.3333 29.7754 24.1577 30.1993 23.8452 30.5118C23.5326 30.8244 23.1087 31 22.6667 31H9.33333C8.89131 31 8.46738 30.8244 8.15482 30.5118C7.84226 30.1993 7.66667 29.7754 7.66667 29.3333V27.6667C4.855 25.91 1 19.3333 1 16.8333V16C1 15.558 1.17559 15.134 1.48816 14.8215C1.80072 14.5089 2.22464 14.3333 2.66667 14.3333Z" stroke="black" stroke-width="2" stroke-linecap="round" stroke-linejoin="round"/>
</svg>
