<svg width="800" height="207" viewBox="0 0 800 207" fill="none" xmlns="http://www.w3.org/2000/svg">
<g clip-path="url(#clip0_1938_581)">
<rect x="800" y="128.83" width="800" height="128.83" transform="rotate(-180 800 128.83)" fill="#6C863D"/>
<path d="M403.248 27.2066L402.687 27.0776L402.127 27.2063L-0.559568 119.689L-2.5025 120.135L-2.5 122.129L-2.47607 141.159L-2.47296 143.653L0.0208129 143.656L799.997 144.653L802.514 144.656L802.5 142.139L802.382 121.078L802.371 119.099L800.443 118.655L403.248 27.2066Z" fill="#F5F3F1" stroke="#6C863D" stroke-width="5"/>
<path d="M403.248 44.7173L402.687 44.5884L402.127 44.717L-0.559568 137.2L-2.5025 137.646L-2.5 139.64L-2.47607 158.67L-2.47296 161.164L0.0208129 161.167L799.997 162.164L802.514 162.167L802.5 159.65L802.382 138.588L802.371 136.61L800.443 136.166L403.248 44.7173Z" fill="#F5F3F1" stroke="#DE6048" stroke-width="5"/>
<path d="M403.248 62.2271L402.687 62.0981L402.127 62.2268L-0.559568 154.71L-2.5025 155.156L-2.5 157.149L-2.47607 176.18L-2.47296 178.674L0.0208129 178.677L799.997 179.674L802.514 179.677L802.5 177.16L802.382 156.098L802.371 154.12L800.443 153.676L403.248 62.2271Z" fill="#F5F3F1" stroke="#B13C26" stroke-width="5"/>
<path d="M403.248 79.7378L402.687 79.6089L402.127 79.7375L-0.559568 172.22L-2.5025 172.667L-2.5 174.66L-2.47607 193.691L-2.47296 196.184L0.0208129 196.187L799.997 197.185L802.514 197.188L802.5 194.671L802.382 173.609L802.371 171.631L800.443 171.187L403.248 79.7378Z" fill="#F5F3F1" stroke="#0A2240" stroke-width="5"/>
<rect x="800" y="219" width="800" height="41.8258" transform="rotate(-180 800 219)" fill="#F5F3F1"/>
</g>
<defs>
<clipPath id="clip0_1938_581">
<rect width="800" height="207" fill="white"/>
</clipPath>
</defs>
</svg>
