<svg width="119" height="70" viewBox="0 0 119 70" fill="none" xmlns="http://www.w3.org/2000/svg" opacity="0.5">
<path fill-rule="evenodd" clip-rule="evenodd" d="M115.926 37.4448C116.426 43.1991 114.914 48.1356 111.484 52.0627C108.225 55.8098 103.591 58.2139 98.5921 59.8871C91.9229 62.1283 83.5569 63.3773 74.5814 64.3239L69.6335 64.8191L64.5977 65.2744L55.3601 66.0752L50.0069 66.5069C40.2819 67.2294 31.1134 67.5621 23.6551 66.4433C18.4416 65.6635 13.4637 64.0966 9.59702 60.9803C5.53708 57.7085 3.19104 53.1095 2.68731 47.3519C1.93139 38.7117 7.08037 28.4841 15.9056 20.37C24.5576 12.4141 37.2829 5.91342 53.6615 4.0294L56.0425 3.78809C73.4669 2.28932 87.8903 6.56146 98.2194 13.1648C108.32 19.6232 115.17 28.8046 115.926 37.4448ZM105.63 38.3492C105.26 34.1201 101.283 27.3901 92.6549 21.8702C90.7639 20.6567 88.685 19.544 86.4181 18.5321C86.4508 20.5829 87.0825 22.5631 88.3186 24.5783C88.6843 25.1566 88.9315 25.8018 89.0458 26.4765C89.1601 27.1511 89.1393 27.8418 88.9845 28.5083C88.8297 29.1748 88.5441 29.8039 88.1442 30.3592C87.7443 30.9144 87.2381 31.3847 86.6549 31.7427C86.0718 32.1007 85.4234 32.3393 84.7473 32.4446C84.0712 32.55 83.3809 32.52 82.7165 32.3564C82.0521 32.1928 81.4268 31.8989 80.8769 31.4916C80.327 31.0844 79.8635 30.572 79.5132 29.9842C76.6316 25.3001 75.565 20.3178 76.3198 15.2385C71.1319 14.1064 65.82 13.6455 60.5146 13.8671C60.3568 15.3332 60.3264 17.0815 60.4907 18.9594C60.764 22.0418 61.4755 24.6824 62.2791 26.2807L62.5802 26.8301C63.2981 27.9977 63.5227 29.4026 63.2046 30.7358C62.8866 32.069 62.052 33.2213 60.8844 33.9391C59.7168 34.6569 58.3119 34.8815 56.9787 34.5635C55.6455 34.2455 54.4933 33.4109 53.7754 32.2433C51.6715 28.8187 50.5741 24.1142 50.2022 19.8632C50.0659 18.2497 50.0246 16.6296 50.0784 15.0112C45.0101 15.9358 40.0808 17.5046 35.4104 19.6794C34.4771 22.97 34.9431 25.9914 36.8458 29.0853C37.5411 30.2522 37.7488 31.6461 37.4241 32.9651C37.0993 34.2842 36.2681 35.4222 35.1104 36.133C33.9528 36.8437 32.5617 37.0699 31.2385 36.7626C29.9153 36.4553 28.7663 35.6393 28.0403 34.4911C26.4621 31.9778 25.3913 29.1798 24.8883 26.255C24.1945 26.8194 23.5321 27.3944 22.9012 27.9802C15.3554 34.9151 12.6104 42.2296 12.9804 46.4587C13.2644 49.7051 14.4322 51.609 16.0854 52.9423C17.9281 54.4277 20.8415 55.5774 25.1855 56.2279C30.8863 57.086 37.9856 56.9527 46.154 56.4214L50.7163 56.0883L57.9323 55.4863L67.7835 54.6134L72.4382 54.1622C81.536 53.2305 89.3433 52.0927 95.3038 50.0933C99.4689 48.6984 102.138 47.0602 103.695 45.2774C105.088 43.6812 105.911 41.5996 105.63 38.3492Z" fill="#E3A99C" fill-opacity="0.25" stroke="#F5F3F1" stroke-width="5"/>
</svg>
