<svg width="1038" height="132" viewBox="0 0 1038 132" fill="none" xmlns="http://www.w3.org/2000/svg">
<path opacity="0.973" fill-rule="evenodd" clip-rule="evenodd" d="M327.879 94.9303C328.298 94.1613 328.821 93.4531 329.448 92.8059C332.755 89.8128 336.328 87.4159 340.168 85.6157C343.788 84.2541 347.1 85.0169 350.104 87.9035C352.07 89.8707 353.813 92.1039 355.334 94.6035C353.03 98.8435 349.98 101.948 346.182 103.918C343.488 104.662 340.873 104.335 338.338 102.938C334.539 100.839 331.052 98.1698 327.879 94.9303Z" fill="#B13C26" stroke="#F5F3F1"/>
<path opacity="0.972" fill-rule="evenodd" clip-rule="evenodd" d="M348.535 116.173C350.397 106.16 355.104 99.0239 362.655 94.7655C355.432 90.3677 350.725 83.3408 348.535 73.685C353.164 72.5231 357.609 73.3402 361.87 76.1362C362.689 76.8317 363.429 77.6488 364.093 78.5874C365.43 81.1671 366.563 83.8905 367.492 86.7581C369.322 90.1863 371.806 92.5832 374.944 93.9484C373.03 95.0661 371.243 96.4823 369.584 98.1972C368.974 99.1777 368.364 100.158 367.753 101.139C366.966 103.542 366.182 105.939 365.4 108.329C363.367 112.607 360.36 115.059 356.379 115.683C353.737 116.131 351.123 116.294 348.535 116.173Z" fill="#B13C26" stroke="#F5F3F1"/>
<path opacity="0.971" fill-rule="evenodd" clip-rule="evenodd" d="M366.578 116.172C368.46 106.138 373.167 99.0023 380.698 94.7648C373.242 90.2951 368.536 83.0503 366.578 73.0307C370.217 72.832 373.791 73.3222 377.299 74.5014C379.281 75.4525 380.98 76.9232 382.397 78.9136C383.505 81.2128 384.463 83.6098 385.274 86.1038C387.112 89.9777 389.771 92.5924 393.248 93.9477C389.769 95.5149 387.11 98.3474 385.274 102.445C383.969 109.85 380.352 114.262 374.422 115.682C371.787 116.139 369.172 116.303 366.578 116.172Z" fill="#B13C26" stroke="#F5F3F1"/>
<path opacity="0.972" fill-rule="evenodd" clip-rule="evenodd" d="M384.621 116.174C386.605 106.204 391.312 99.0141 398.741 94.6032C391.381 90.2472 386.674 83.1658 384.621 73.3593C389.174 72.6232 393.532 73.4403 397.695 75.8105C398.775 76.8338 399.778 77.9777 400.702 79.2422C401.746 81.8454 402.792 84.46 403.839 87.0861C405.687 90.4475 408.171 92.7353 411.291 93.9495C406.304 96.3189 403.21 100.786 402.009 107.35C399.931 112.107 396.75 114.885 392.465 115.684C390.07 116.016 387.674 116.288 385.275 116.501C385.039 116.421 384.821 116.312 384.621 116.174Z" fill="#B13C26" stroke="#F5F3F1"/>
<path opacity="0.971" fill-rule="evenodd" clip-rule="evenodd" d="M402.66 116.174C404.726 106.155 409.519 99.0196 417.041 94.7666C409.561 90.4805 404.768 83.3446 402.66 73.3593C407.576 72.4683 412.195 73.5034 416.518 76.4641C418.995 79.4363 420.781 82.9769 421.878 87.0861C423.812 90.3207 426.296 92.6085 429.33 93.9495C426.838 95.3765 424.615 97.3375 422.663 99.8324C421.501 102.448 420.542 105.171 419.787 108.003C417.676 112.379 414.582 114.94 410.504 115.684C408.109 116.016 405.713 116.288 403.314 116.501C403.078 116.421 402.86 116.312 402.66 116.174Z" fill="#B13C26" stroke="#F5F3F1"/>
<path opacity="0.971" fill-rule="evenodd" clip-rule="evenodd" d="M422.535 116.174C424.601 106.155 429.394 99.0196 436.916 94.7666C429.436 90.4805 424.643 83.3446 422.535 73.3593C427.451 72.4683 432.07 73.5034 436.393 76.4641C438.87 79.4363 440.656 82.9769 441.753 87.0861C443.687 90.3207 446.171 92.6085 449.205 93.9495C446.713 95.3765 444.49 97.3375 442.538 99.8324C441.376 102.448 440.417 105.171 439.662 108.003C437.551 112.379 434.457 114.94 430.379 115.684C427.984 116.016 425.588 116.288 423.189 116.501C422.953 116.421 422.735 116.312 422.535 116.174Z" fill="#B13C26" stroke="#F5F3F1"/>
<path opacity="0.971" fill-rule="evenodd" clip-rule="evenodd" d="M440.574 116.174C442.64 106.155 447.433 99.0196 454.955 94.7666C447.476 90.4805 442.682 83.3446 440.574 73.3593C445.49 72.4683 450.109 73.5034 454.432 76.4641C456.909 79.4363 458.695 82.9769 459.793 87.0861C461.726 90.3207 464.21 92.6085 467.245 93.9495C464.752 95.3765 462.529 97.3375 460.577 99.8324C459.415 102.448 458.456 105.171 457.701 108.003C455.59 112.379 452.496 114.94 448.418 115.684C446.023 116.016 443.627 116.288 441.228 116.501C440.992 116.421 440.774 116.312 440.574 116.174Z" fill="#B13C26" stroke="#F5F3F1"/>
<path opacity="0.973" fill-rule="evenodd" clip-rule="evenodd" d="M519.184 15.0491C518.414 15.4678 517.706 15.9907 517.059 16.6179C514.066 19.925 511.669 23.4984 509.869 27.3383C508.507 30.9582 509.27 34.2702 512.157 37.2743C514.124 39.2404 516.357 40.9834 518.857 42.5038C523.097 40.2005 526.202 37.1499 528.171 33.3522C528.915 30.6579 528.588 28.0432 527.191 25.508C525.092 21.7087 522.423 18.2224 519.184 15.0491Z" fill="#B13C26" stroke="#F5F3F1"/>
<path opacity="0.972" fill-rule="evenodd" clip-rule="evenodd" d="M540.426 35.7048C530.413 37.5671 523.277 42.2736 519.019 49.8244C514.621 42.6015 507.594 37.8949 497.938 35.7048C496.776 40.334 497.593 44.779 500.389 49.04C501.085 49.8584 501.902 50.5992 502.841 51.2625C505.42 52.5997 508.144 53.7327 511.011 54.6617C514.439 56.4915 516.836 58.9755 518.202 62.1137C519.319 60.1992 520.736 58.4123 522.45 56.7535C523.431 56.1435 524.411 55.5332 525.392 54.9232C527.795 54.1356 530.192 53.3512 532.582 52.5699C536.861 50.5369 539.312 47.53 539.936 43.549C540.384 40.9071 540.548 38.2924 540.426 35.7048Z" fill="#B13C26" stroke="#F5F3F1"/>
<path opacity="0.971" fill-rule="evenodd" clip-rule="evenodd" d="M540.425 53.7488C530.391 55.6309 523.255 60.3374 519.018 67.8684C514.548 60.4127 507.303 55.7062 497.284 53.7488C497.085 57.3877 497.575 60.9613 498.755 64.4692C499.706 66.4514 501.176 68.151 503.167 69.5679C505.466 70.6756 507.863 71.6341 510.357 72.4442C514.231 74.2828 516.846 76.9413 518.201 80.4191C519.768 76.9394 522.601 74.281 526.698 72.4442C534.103 71.1399 538.515 67.523 539.935 61.593C540.392 58.9576 540.556 56.3429 540.425 53.7488Z" fill="#B13C26" stroke="#F5F3F1"/>
<path opacity="0.972" fill-rule="evenodd" clip-rule="evenodd" d="M540.427 71.7896C530.457 73.7736 523.267 78.4801 518.856 85.9091C514.5 78.5492 507.419 73.8426 497.612 71.7896C496.876 76.3429 497.693 80.7006 500.064 84.8632C501.087 85.9439 502.231 86.9461 503.495 87.8702C506.099 88.9143 508.713 89.9602 511.339 91.0079C514.701 92.8557 516.989 95.3397 518.203 98.4599C520.572 93.4728 525.039 90.3788 531.603 89.1776C536.36 87.0991 539.138 83.918 539.937 79.6338C540.269 77.2387 540.541 74.842 540.754 72.4432C540.674 72.2074 540.565 71.9896 540.427 71.7896Z" fill="#B13C26" stroke="#F5F3F1"/>
<path opacity="0.971" fill-rule="evenodd" clip-rule="evenodd" d="M540.427 89.8303C530.409 91.896 523.273 96.6896 519.02 104.211C514.734 96.7317 507.598 91.9378 497.612 89.8303C496.722 94.746 497.757 99.3652 500.717 103.688C503.69 106.165 507.23 107.952 511.339 109.049C514.574 110.982 516.862 113.466 518.203 116.501C519.63 114.008 521.591 111.785 524.086 109.833C526.701 108.671 529.424 107.712 532.256 106.957C536.633 104.846 539.193 101.752 539.937 97.6745C540.269 95.2794 540.541 92.8828 540.754 90.484C540.674 90.2482 540.565 90.0303 540.427 89.8303Z" fill="#B13C26" stroke="#F5F3F1"/>
<path opacity="0.973" fill-rule="evenodd" clip-rule="evenodd" d="M710.121 94.5582C709.702 95.3272 709.179 96.0355 708.552 96.6826C705.245 99.6757 701.672 102.073 697.832 103.873C694.212 105.234 690.9 104.472 687.896 101.585C685.93 99.6178 684.187 97.3846 682.666 94.885C684.97 90.6451 688.02 87.5402 691.818 85.5704C694.512 84.827 697.127 85.1538 699.662 86.5509C703.461 88.6496 706.948 91.3187 710.121 94.5582Z" fill="#B13C26" stroke="#F5F3F1"/>
<path opacity="0.972" fill-rule="evenodd" clip-rule="evenodd" d="M689.465 73.3157C687.603 83.3289 682.896 90.4646 675.345 94.7231C682.568 99.1209 687.275 106.148 689.465 115.804C684.836 116.965 680.391 116.148 676.13 113.352C675.311 112.657 674.571 111.84 673.907 110.901C672.57 108.321 671.437 105.598 670.508 102.73C668.678 99.3023 666.194 96.9053 663.056 95.5401C664.97 94.4224 666.757 93.0062 668.416 91.2913C669.026 90.3109 669.636 89.3304 670.247 88.3499C671.034 85.9465 671.818 83.5498 672.6 81.1596C674.633 76.8811 677.64 74.4299 681.621 73.806C684.263 73.3576 686.877 73.1942 689.465 73.3157Z" fill="#B13C26" stroke="#F5F3F1"/>
<path opacity="0.971" fill-rule="evenodd" clip-rule="evenodd" d="M671.422 73.3164C669.54 83.3504 664.833 90.4862 657.302 94.7237C664.758 99.1934 669.464 106.438 671.422 116.458C667.783 116.657 664.209 116.166 660.701 114.987C658.719 114.036 657.02 112.565 655.603 110.575C654.495 108.276 653.537 105.879 652.726 103.385C650.888 99.5108 648.229 96.8961 644.752 95.5408C648.231 93.9736 650.89 91.1411 652.726 87.0432C654.031 79.6387 657.648 75.2265 663.578 73.8066C666.213 73.3493 668.828 73.1859 671.422 73.3164Z" fill="#B13C26" stroke="#F5F3F1"/>
<path opacity="0.972" fill-rule="evenodd" clip-rule="evenodd" d="M653.379 73.3146C651.395 83.2842 646.688 90.4745 639.259 94.8854C646.619 99.2413 651.326 106.323 653.379 116.129C648.826 116.865 644.468 116.048 640.305 113.678C639.225 112.655 638.222 111.511 637.298 110.246C636.254 107.643 635.208 105.029 634.161 102.402C632.313 99.041 629.829 96.7532 626.709 95.539C631.696 93.1697 634.79 88.703 635.991 82.139C638.069 77.3817 641.25 74.6036 645.535 73.8049C647.93 73.4728 650.326 73.2005 652.725 72.9878C652.961 73.0673 653.179 73.1762 653.379 73.3146Z" fill="#B13C26" stroke="#F5F3F1"/>
<path opacity="0.971" fill-rule="evenodd" clip-rule="evenodd" d="M635.34 73.3146C633.274 83.3332 628.481 90.4689 620.959 94.7219C628.439 99.008 633.232 106.144 635.34 116.129C630.424 117.02 625.805 115.985 621.482 113.024C619.005 110.052 617.219 106.512 616.122 102.402C614.188 99.1678 611.704 96.88 608.67 95.539C611.162 94.112 613.385 92.151 615.337 89.6561C616.499 87.041 617.458 84.3174 618.213 81.4854C620.324 77.1091 623.418 74.5489 627.496 73.8049C629.891 73.4728 632.287 73.2005 634.686 72.9878C634.922 73.0673 635.14 73.1762 635.34 73.3146Z" fill="#B13C26" stroke="#F5F3F1"/>
<path opacity="0.971" fill-rule="evenodd" clip-rule="evenodd" d="M615.465 73.3146C613.399 83.3332 608.606 90.4689 601.084 94.7219C608.564 99.008 613.357 106.144 615.465 116.129C610.549 117.02 605.93 115.985 601.607 113.024C599.13 110.052 597.344 106.512 596.247 102.402C594.313 99.1678 591.829 96.88 588.795 95.539C591.287 94.112 593.51 92.151 595.462 89.6561C596.624 87.041 597.583 84.3174 598.338 81.4854C600.449 77.1091 603.543 74.5489 607.621 73.8049C610.016 73.4728 612.412 73.2005 614.811 72.9878C615.047 73.0673 615.265 73.1762 615.465 73.3146Z" fill="#B13C26" stroke="#F5F3F1"/>
<path opacity="0.971" fill-rule="evenodd" clip-rule="evenodd" d="M597.426 73.3146C595.36 83.3332 590.567 90.4689 583.045 94.7219C590.524 99.008 595.318 106.144 597.426 116.129C592.51 117.02 587.891 115.985 583.568 113.024C581.091 110.052 579.305 106.512 578.207 102.402C576.274 99.1678 573.79 96.88 570.755 95.539C573.248 94.112 575.471 92.151 577.423 89.6561C578.585 87.041 579.544 84.3174 580.299 81.4854C582.41 77.1091 585.504 74.5489 589.582 73.8049C591.977 73.4728 594.373 73.2005 596.772 72.9878C597.008 73.0673 597.226 73.1762 597.426 73.3146Z" fill="#B13C26" stroke="#F5F3F1"/>
</svg>
