<svg width="42" height="42" viewBox="0 0 42 42" fill="none" xmlns="http://www.w3.org/2000/svg">
<path d="M35.7321 4.92676H6.27302C5.56456 4.92676 4.99219 5.49913 4.99219 6.20759V35.6667C4.99219 36.3752 5.56456 36.9475 6.27302 36.9475H35.7321C36.4406 36.9475 37.013 36.3752 37.013 35.6667V6.20759C37.013 5.49913 36.4406 4.92676 35.7321 4.92676ZM32.0337 14.2728H29.4761C27.4708 14.2728 27.0825 15.2254 27.0825 16.6263V19.7124H31.8696L31.2452 24.5435H27.0825V36.9475H22.0913V24.5475H17.9166V19.7124H22.0913V16.15C22.0913 12.0154 24.6169 9.7619 28.3073 9.7619C30.0765 9.7619 31.5934 9.89398 32.0377 9.95402V14.2728H32.0337Z" fill="white"/>
</svg>
