<svg width="62" height="62" viewBox="0 0 62 62" fill="none" xmlns="http://www.w3.org/2000/svg">
<path fill-rule="evenodd" clip-rule="evenodd" d="M31 3.86133C25.4387 3.86133 20.1053 6.07053 16.1729 10.0029C12.2405 13.9353 10.0313 19.2688 10.0312 24.8301V28.6426C10.0312 30.6556 10.8509 32.5885 11.7202 34.0792C12.6009 35.6004 13.6607 36.8738 14.4004 37.6172L19.8027 43.0157L22.0025 49.6113H39.9975L42.1973 43.0157L47.5996 37.6172C48.3392 36.8738 49.3991 35.5966 50.2798 34.0792C51.1491 32.5885 51.9688 30.6556 51.9688 28.6426V24.8301C51.9688 19.2688 49.7595 13.9353 45.8271 10.0029C41.8947 6.07053 36.5613 3.86133 31 3.86133ZM36.1621 20.461L33.4629 17.7617L26.3983 24.8301L30.2108 28.6426L25.8379 33.0117L28.5371 35.711L35.6017 28.6426L31.7892 24.8301L36.1621 20.461Z" fill="#F5F3F1"/>
<path d="M38.625 57.2363V53.4238H23.375V57.2363H38.625Z" fill="#F5F3F1"/>
</svg>
