<svg width="42" height="42" viewBox="0 0 42 42" fill="none" xmlns="http://www.w3.org/2000/svg">
<path d="M35.7165 4.92676H6.25739C5.54893 4.92676 4.97656 5.49913 4.97656 6.20759V35.6667C4.97656 36.3752 5.54893 36.9475 6.25739 36.9475H35.7165C36.425 36.9475 36.9973 36.3752 36.9973 35.6667V6.20759C36.9973 5.49913 36.425 4.92676 35.7165 4.92676ZM14.4747 32.2125H9.72364V16.9305H14.4747V32.2125ZM12.1012 14.8412C11.5565 14.8412 11.0241 14.6797 10.5713 14.3771C10.1184 14.0745 9.76545 13.6444 9.55702 13.1412C9.34859 12.638 9.29406 12.0843 9.40031 11.5502C9.50657 11.016 9.76884 10.5253 10.154 10.1402C10.5391 9.75506 11.0298 9.49279 11.5639 9.38653C12.0981 9.28027 12.6518 9.33481 13.155 9.54324C13.6582 9.75166 14.0883 10.1046 14.3909 10.5575C14.6935 11.0103 14.855 11.5428 14.855 12.0874C14.851 13.6084 13.6182 14.8412 12.1012 14.8412ZM32.2623 32.2125H27.5152V24.7796C27.5152 23.0065 27.4832 20.729 25.0456 20.729C22.576 20.729 22.1957 22.6583 22.1957 24.6516V32.2125H17.4527V16.9305H22.0076V19.0199H22.0717C22.7041 17.8191 24.2531 16.5503 26.5666 16.5503C31.3777 16.5503 32.2623 19.7164 32.2623 23.831V32.2125Z" fill="white"/>
</svg>
