<svg width="46" height="47" viewBox="0 0 46 47" fill="none" xmlns="http://www.w3.org/2000/svg">
<path d="M22.9987 27.2777C27.2269 27.2777 30.6654 23.8392 30.6654 19.611C30.6654 15.3828 27.2269 11.9443 22.9987 11.9443C18.7705 11.9443 15.332 15.3828 15.332 19.611C15.332 23.8392 18.7705 27.2777 22.9987 27.2777ZM22.9987 15.7777C25.1128 15.7777 26.832 17.4969 26.832 19.611C26.832 21.7251 25.1128 23.4443 22.9987 23.4443C20.8846 23.4443 19.1654 21.7251 19.1654 19.611C19.1654 17.4969 20.8846 15.7777 22.9987 15.7777Z" fill="white"/>
<path d="M21.8898 42.2542C22.2142 42.4858 22.6029 42.6104 23.0015 42.6104C23.4001 42.6104 23.7887 42.4858 24.1131 42.2542C24.6958 41.8421 38.3904 31.954 38.3348 19.6107C38.3348 11.1563 31.4559 4.27734 23.0015 4.27734C14.5471 4.27734 7.66814 11.1563 7.66814 19.6011C7.61255 31.954 21.3071 41.8421 21.8898 42.2542ZM23.0015 8.11068C29.3437 8.11068 34.5015 13.2684 34.5015 19.6203C34.5417 28.1264 26.0911 35.7643 23.0015 38.2694C19.9137 35.7624 11.4612 28.1226 11.5015 19.6107C11.5015 13.2684 16.6592 8.11068 23.0015 8.11068Z" fill="white"/>
</svg>
