<svg width="62" height="62" viewBox="0 0 62 62" fill="none" xmlns="http://www.w3.org/2000/svg">
<path fill-rule="evenodd" clip-rule="evenodd" d="M8.125 7.67383H47.5208V14.028H44.9792V10.2155H10.6667V39.4447H37.846V41.9863H8.125V7.67383ZM46.25 24.1947C47.2611 24.1947 48.2309 23.793 48.9458 23.078C49.6608 22.363 50.0625 21.3933 50.0625 20.3822C50.0625 19.371 49.6608 18.4013 48.9458 17.6863C48.2309 16.9713 47.2611 16.5697 46.25 16.5697C45.2389 16.5697 44.2691 16.9713 43.5542 17.6863C42.8392 18.4013 42.4375 19.371 42.4375 20.3822C42.4375 21.3933 42.8392 22.363 43.5542 23.078C44.2691 23.793 45.2389 24.1947 46.25 24.1947ZM48.8311 26.749C50.4819 26.749 51.7883 27.4912 52.6436 28.6375C53.4429 29.7113 53.781 31.0394 53.8572 32.2657C53.9328 33.5237 53.7614 34.7844 53.3527 35.9766C52.9714 37.0822 52.3271 38.2259 51.3333 39.01V51.5176C51.3343 51.9965 51.1549 52.4583 50.8308 52.8109C50.5068 53.1636 50.0619 53.3814 49.5845 53.421C49.1072 53.4605 48.6325 53.319 48.2548 53.0245C47.8772 52.7299 47.6242 52.304 47.5462 51.8315L45.9069 41.9863H45.5282L43.6753 51.8683C43.5873 52.3347 43.3285 52.7515 42.9495 53.0372C42.5705 53.3229 42.0985 53.4569 41.6259 53.413C41.1533 53.3692 40.7141 53.1506 40.3941 52.8001C40.0742 52.4495 39.8965 51.9922 39.8958 51.5176V33.3866C39.6417 33.7737 39.3909 34.163 39.1435 34.5545L39.0444 34.7108L39.019 34.7515L39.0126 34.7629C38.8413 35.0379 38.6028 35.2647 38.3195 35.4219C38.0362 35.5791 37.7175 35.6616 37.3936 35.6614H31.0394C30.5338 35.6614 30.049 35.4606 29.6915 35.1031C29.334 34.7456 29.1331 34.2607 29.1331 33.7551C29.1331 33.2496 29.334 32.7647 29.6915 32.4072C30.049 32.0497 30.5338 31.8489 31.0394 31.8489H36.3477C36.6565 31.3711 37.0631 30.7509 37.4901 30.1282C37.9349 29.4788 38.4255 28.7913 38.8626 28.2524C39.0749 27.9894 39.3125 27.7149 39.5514 27.4899C39.6684 27.3794 39.831 27.2358 40.0293 27.1087C40.3785 26.8777 40.7874 26.7532 41.2061 26.7503L48.8311 26.749Z" fill="#F5F3F1"/>
</svg>
