<svg width="62" height="62" viewBox="0 0 62 62" fill="none" xmlns="http://www.w3.org/2000/svg">
<path d="M56.4154 20.3823C56.4152 19.9211 56.2896 19.4686 56.0519 19.0734L49.1665 7.59774C48.7129 6.84755 48.0739 6.2267 47.311 5.79492C46.548 5.36314 45.6868 5.13496 44.8101 5.13232H17.1873C15.4132 5.13232 13.7433 6.07782 12.8309 7.60028L5.94549 19.0734C5.70782 19.4686 5.58218 19.9211 5.58203 20.3823C5.58203 22.9367 6.56311 25.2471 8.1237 27.0364V50.8823C8.1237 51.5564 8.39148 52.2029 8.86813 52.6796C9.34479 53.1562 9.99127 53.424 10.6654 53.424H30.9987C31.6728 53.424 32.3193 53.1562 32.7959 52.6796C33.2726 52.2029 33.5404 51.5564 33.5404 50.8823V38.174H43.707V50.8823C43.707 51.5564 43.9748 52.2029 44.4515 52.6796C44.9281 53.1562 45.5746 53.424 46.2487 53.424H51.332C52.0061 53.424 52.6526 53.1562 53.1293 52.6796C53.6059 52.2029 53.8737 51.5564 53.8737 50.8823V27.0364C55.4343 25.2471 56.4154 22.9367 56.4154 20.3823ZM51.2914 21.0203C51.136 22.2481 50.5381 23.3771 49.6097 24.1955C48.6814 25.0139 47.4863 25.4655 46.2487 25.4657C43.4452 25.4657 41.1654 23.1858 41.1654 20.3823C41.1654 20.2095 41.1018 20.057 41.0662 19.8943L41.1171 19.8842L39.1829 10.2157H44.8101L51.2914 21.0203ZM25.9332 20.5475L27.997 10.2157H33.9979L36.0642 20.5475C35.9753 23.2747 33.7437 25.4657 30.9987 25.4657C28.2537 25.4657 26.0221 23.2747 25.9332 20.5475ZM17.1873 10.2157H22.8145L20.8829 19.8842L20.9337 19.8943C20.8956 20.057 20.832 20.2095 20.832 20.3823C20.832 23.1858 18.5522 25.4657 15.7487 25.4657C14.5111 25.4655 13.316 25.0139 12.3876 24.1955C11.4593 23.3771 10.8614 22.2481 10.706 21.0203L17.1873 10.2157ZM25.9154 40.7157H15.7487V33.0907H25.9154V40.7157Z" fill="#534F49"/>
</svg>
