<svg width="801" height="193" viewBox="0 0 801 193" fill="none" xmlns="http://www.w3.org/2000/svg">
<g clip-path="url(#clip0_1938_574)">
<rect x="-2.67969" y="58.0669" width="806.438" height="129.867" fill="#6C863D"/>
<path d="M397.831 158.053L-2.56063 65.8683L-2.67969 44.6372L803.734 45.6423L803.758 64.8258L397.831 158.053Z" fill="#F5F3F1"/>
<path d="M397.27 142.838L397.83 142.967L398.39 142.838L804.317 49.611L806.26 49.1648L806.258 47.1713L806.234 27.9878L806.23 25.4941L803.737 25.4909L-2.67657 24.4858L-5.19376 24.4827L-5.17965 26.9999L-5.06059 48.231L-5.0495 50.2093L-3.12155 50.6532L397.27 142.838Z" fill="#F5F3F1" stroke="#DE6048" stroke-width="5"/>
<path d="M397.27 125.186L397.83 125.315L398.39 125.186L804.317 31.9592L806.26 31.513L806.258 29.5195L806.234 10.3359L806.23 7.8422L803.737 7.83909L-2.67657 6.83399L-5.19376 6.83085L-5.17965 9.348L-5.06059 30.5791L-5.0495 32.5575L-3.12155 33.0014L397.27 125.186Z" fill="#F5F3F1" stroke="#B13C26" stroke-width="5"/>
<path d="M397.27 107.535L397.83 107.664L398.39 107.535L804.317 14.3083L806.26 13.8621L806.258 11.8686L806.234 -7.31494L806.23 -9.80868L803.737 -9.81179L-2.67657 -10.8169L-5.19376 -10.82L-5.17965 -8.30288L-5.06059 12.9282L-5.0495 14.9066L-3.12155 15.3505L397.27 107.535Z" fill="#F5F3F1" stroke="#0A2240" stroke-width="5"/>
</g>
<defs>
<clipPath id="clip0_1938_574">
<rect width="800" height="192" fill="white" transform="translate(0.539062 0.793457)"/>
</clipPath>
</defs>
</svg>
