<svg width="338" height="140" viewBox="0 0 338 140" fill="none" xmlns="http://www.w3.org/2000/svg">
<g clip-path="url(#clip0_2298_1449)">
<path opacity="0.973" fill-rule="evenodd" clip-rule="evenodd" d="M22.1601 37.9209C21.391 38.3396 20.6828 38.8625 20.0357 39.4897C17.0426 42.7968 14.6456 46.3702 12.8454 50.2102C11.4839 53.83 12.2467 57.142 15.1332 60.1462C17.1004 62.1122 19.3336 63.8552 21.8332 65.3757C26.0732 63.0723 29.1781 60.0217 31.1479 56.2241C31.8913 53.5297 31.5644 50.915 30.1674 48.3799C28.0687 44.5805 25.3996 41.0942 22.1601 37.9209Z" fill="#B8A895" stroke="#F5F3F1"/>
<path opacity="0.972" fill-rule="evenodd" clip-rule="evenodd" d="M43.4025 58.5762C33.3894 60.4384 26.2536 65.1449 21.9952 72.6958C17.5974 65.4728 10.5706 60.7663 0.914715 58.5762C-0.247161 63.2053 0.569913 67.6504 3.36594 71.9113C4.06143 72.7298 4.8785 73.4705 5.81716 74.1339C8.39682 75.471 11.1203 76.604 13.9879 77.533C17.416 79.3628 19.813 81.8468 21.1781 84.985C22.2959 83.0705 23.7121 81.2836 25.4269 79.6248C26.4074 79.0148 27.3879 78.4045 28.3684 77.7945C30.7717 77.0069 33.1685 76.2225 35.5586 75.4412C39.8372 73.4083 42.2884 70.4013 42.9123 66.4204C43.3607 63.7785 43.5241 61.1637 43.4025 58.5762Z" fill="#B8A895" stroke="#F5F3F1"/>
<path opacity="0.971" fill-rule="evenodd" clip-rule="evenodd" d="M43.4019 76.6201C33.3679 78.5022 26.2321 83.2087 21.9946 90.7397C17.5248 83.284 10.28 78.5775 0.260403 76.6201C0.0616878 80.2591 0.551934 83.8326 1.73113 87.3405C2.68221 89.3228 4.15294 91.0224 6.14333 92.4393C8.44258 93.5469 10.8395 94.5055 13.3336 95.3155C17.2075 97.1542 19.8221 99.8126 21.1775 103.29C22.7446 99.8108 25.5772 97.1524 29.675 95.3155C37.0795 94.0113 41.4917 90.3943 42.9116 84.4643C43.3689 81.8289 43.5323 79.2142 43.4019 76.6201Z" fill="#B8A895" stroke="#F5F3F1"/>
<path opacity="0.972" fill-rule="evenodd" clip-rule="evenodd" d="M43.4036 94.6611C33.434 96.6452 26.2438 101.352 21.8329 108.781C17.4769 101.421 10.3955 96.7142 0.589001 94.6611C-0.147022 99.2144 0.670052 103.572 3.04022 107.735C4.06352 108.815 5.20743 109.818 6.47193 110.742C9.07512 111.786 11.6898 112.832 14.3158 113.879C17.6773 115.727 19.9651 118.211 21.1792 121.331C23.5486 116.344 28.0152 113.25 34.5792 112.049C39.3366 109.971 42.1147 106.79 42.9134 102.505C43.2454 100.11 43.5178 97.7136 43.7305 95.3148C43.651 95.079 43.542 94.8612 43.4036 94.6611Z" fill="#B8A895" stroke="#F5F3F1"/>
<path opacity="0.971" fill-rule="evenodd" clip-rule="evenodd" d="M43.4036 112.702C33.3851 114.768 26.2493 119.561 21.9963 127.083C17.7103 119.603 10.5743 114.81 0.589001 112.702C-0.301937 117.618 0.733132 122.237 3.69388 126.56C6.66607 129.037 10.2066 130.823 14.3158 131.92C17.5505 133.854 19.8383 136.338 21.1792 139.372C22.6063 136.88 24.5672 134.657 27.0622 132.705C29.6773 131.543 32.4008 130.584 35.2329 129.829C39.6092 127.718 42.1694 124.624 42.9134 120.546C43.2454 118.151 43.5178 115.755 43.7305 113.356C43.651 113.12 43.542 112.902 43.4036 112.702Z" fill="#B8A895" stroke="#F5F3F1"/>
<path opacity="0.973" fill-rule="evenodd" clip-rule="evenodd" d="M95.3009 18.0469C96.0699 18.4656 96.7781 18.9885 97.4253 19.6157C100.418 22.9228 102.815 26.4962 104.616 30.3361C105.977 33.956 105.214 37.268 102.328 40.2722C100.361 42.2382 98.1273 43.9812 95.6277 45.5016C91.3877 43.1983 88.2829 40.1477 86.3131 36.35C85.5697 33.6557 85.8965 31.041 87.2936 28.5058C89.3923 24.7065 92.0614 21.2202 95.3009 18.0469Z" fill="#B8A895" stroke="#F5F3F1"/>
<path opacity="0.972" fill-rule="evenodd" clip-rule="evenodd" d="M74.0584 38.7021C84.0715 40.5644 91.2073 45.2709 95.4657 52.8217C99.8635 45.5988 106.89 40.8923 116.546 38.7021C117.708 43.3313 116.891 47.7763 114.095 52.0373C113.4 52.8557 112.582 53.5965 111.644 54.2598C109.064 55.597 106.341 56.73 103.473 57.659C100.045 59.4888 97.648 61.9728 96.2828 65.111C95.1651 63.1965 93.7489 61.4096 92.034 59.7508C91.0535 59.1408 90.073 58.5305 89.0926 57.9205C86.6892 57.1329 84.2925 56.3485 81.9023 55.5672C77.6238 53.5343 75.1725 50.5273 74.5487 46.5464C74.1003 43.9044 73.9369 41.2897 74.0584 38.7021Z" fill="#B8A895" stroke="#F5F3F1"/>
<path opacity="0.971" fill-rule="evenodd" clip-rule="evenodd" d="M74.0591 56.7461C84.0931 58.6282 91.2289 63.3347 95.4664 70.8657C99.9361 63.41 107.181 58.7035 117.201 56.7461C117.399 60.385 116.909 63.9586 115.73 67.4665C114.779 69.4488 113.308 71.1483 111.318 72.5653C109.018 73.6729 106.621 74.6314 104.127 75.4415C100.253 77.2802 97.6388 79.9386 96.2835 83.4164C94.7163 79.9367 91.8838 77.2783 87.7859 75.4415C80.3814 74.1372 75.9692 70.5203 74.5493 64.5903C74.092 61.9549 73.9286 59.3402 74.0591 56.7461Z" fill="#B8A895" stroke="#F5F3F1"/>
<path opacity="0.972" fill-rule="evenodd" clip-rule="evenodd" d="M74.0573 74.7871C84.0269 76.7712 91.2171 81.4777 95.628 88.9067C99.984 81.5467 107.065 76.8402 116.872 74.7871C117.608 79.3404 116.791 83.6981 114.421 87.8608C113.397 88.9415 112.254 89.9437 110.989 90.8678C108.386 91.9118 105.771 92.9577 103.145 94.0054C99.7837 95.8533 97.4959 98.3373 96.2817 101.457C93.9123 96.4704 89.4457 93.3763 82.8817 92.1751C78.1243 90.0967 75.3463 86.9156 74.5475 82.6313C74.2155 80.2362 73.9431 77.8396 73.7305 75.4408C73.81 75.2049 73.9189 74.9871 74.0573 74.7871Z" fill="#B8A895" stroke="#F5F3F1"/>
<path opacity="0.971" fill-rule="evenodd" clip-rule="evenodd" d="M74.0573 92.8281C84.0759 94.8938 91.2116 99.6874 95.4646 107.209C99.7507 99.7295 106.887 94.9356 116.872 92.8281C117.763 97.7438 116.728 102.363 113.767 106.686C110.795 109.163 107.254 110.949 103.145 112.046C99.9105 113.98 97.6227 116.464 96.2817 119.498C94.8547 117.006 92.8937 114.783 90.3988 112.831C87.7837 111.669 85.0601 110.71 82.228 109.955C77.8518 107.844 75.2916 104.75 74.5475 100.672C74.2155 98.2772 73.9431 95.8806 73.7305 93.4818C73.81 93.246 73.9189 93.0282 74.0573 92.8281Z" fill="#B8A895" stroke="#F5F3F1"/>
<path opacity="0.971" fill-rule="evenodd" clip-rule="evenodd" d="M74.0573 112.703C84.0759 114.769 91.2116 119.562 95.4646 127.084C99.7507 119.604 106.887 114.811 116.872 112.703C117.763 117.619 116.728 122.238 113.767 126.561C110.795 129.038 107.254 130.824 103.145 131.921C99.9105 133.855 97.6227 136.339 96.2817 139.373C94.8547 136.881 92.8937 134.658 90.3988 132.706C87.7837 131.544 85.0601 130.585 82.228 129.83C77.8518 127.719 75.2916 124.625 74.5475 120.547C74.2155 118.152 73.9431 115.756 73.7305 113.357C73.81 113.121 73.9189 112.903 74.0573 112.703Z" fill="#B8A895" stroke="#F5F3F1"/>
<path opacity="0.973" fill-rule="evenodd" clip-rule="evenodd" d="M168.813 0.00585937C169.582 0.424557 170.29 0.947505 170.937 1.5747C173.93 4.88174 176.327 8.4552 178.127 12.2951C179.489 15.915 178.726 19.227 175.839 22.2311C173.872 24.1972 171.639 25.9401 169.139 27.4606C164.899 25.1573 161.795 22.1067 159.825 18.309C159.081 15.6147 159.408 13 160.805 10.4648C162.904 6.66549 165.573 3.17918 168.813 0.00585937Z" fill="#B8A895" stroke="#F5F3F1"/>
<path opacity="0.972" fill-rule="evenodd" clip-rule="evenodd" d="M147.57 20.6611C157.583 22.5233 164.719 27.2299 168.977 34.7807C173.375 27.5578 180.402 22.8512 190.058 20.6611C191.22 25.2903 190.403 29.7353 187.607 33.9963C186.911 34.8147 186.094 35.5555 185.156 36.2188C182.576 37.556 179.852 38.689 176.985 39.618C173.557 41.4478 171.16 43.9318 169.795 47.07C168.677 45.1555 167.261 43.3686 165.546 41.7098C164.565 41.0998 163.585 40.4895 162.604 39.8795C160.201 39.0919 157.804 38.3075 155.414 37.5262C151.135 35.4932 148.684 32.4863 148.06 28.5053C147.612 25.8634 147.449 23.2487 147.57 20.6611Z" fill="#B8A895" stroke="#F5F3F1"/>
<path opacity="0.971" fill-rule="evenodd" clip-rule="evenodd" d="M147.571 38.7051C157.605 40.5872 164.741 45.2937 168.978 52.8247C173.448 45.369 180.693 40.6625 190.712 38.7051C190.911 42.344 190.421 45.9176 189.242 49.4255C188.29 51.4077 186.82 53.1073 184.829 54.5242C182.53 55.6318 180.133 56.5904 177.639 57.4005C173.765 59.2391 171.151 61.8975 169.795 65.3754C168.228 61.8957 165.396 59.2373 161.298 57.4005C153.893 56.0962 149.481 52.4793 148.061 46.5493C147.604 43.9139 147.44 41.2992 147.571 38.7051Z" fill="#B8A895" stroke="#F5F3F1"/>
<path opacity="0.972" fill-rule="evenodd" clip-rule="evenodd" d="M147.569 56.7461C157.539 58.7302 164.729 63.4367 169.14 70.8657C173.496 63.5057 180.577 58.7992 190.384 56.7461C191.12 61.2994 190.303 65.6571 187.932 69.8198C186.909 70.9005 185.765 71.9027 184.501 72.8267C181.898 73.8708 179.283 74.9167 176.657 75.9644C173.295 77.8123 171.008 80.2963 169.793 83.4164C167.424 78.4293 162.957 75.3353 156.393 74.1341C151.636 72.0556 148.858 68.8746 148.059 64.5903C147.727 62.1952 147.455 59.7985 147.242 57.3998C147.322 57.1639 147.431 56.9461 147.569 56.7461Z" fill="#B8A895" stroke="#F5F3F1"/>
<path opacity="0.971" fill-rule="evenodd" clip-rule="evenodd" d="M147.569 74.7871C157.588 76.8528 164.723 81.6464 168.976 89.1682C173.262 81.6884 180.398 76.8946 190.384 74.7871C191.275 79.7028 190.24 84.322 187.279 88.6452C184.307 91.1216 180.766 92.9083 176.657 94.0054C173.422 95.9385 171.134 98.4225 169.793 101.457C168.366 98.9645 166.405 96.742 163.91 94.7899C161.295 93.6279 158.572 92.669 155.74 91.9136C151.363 89.8025 148.803 86.7085 148.059 82.6313C147.727 80.2362 147.455 77.8396 147.242 75.4408C147.322 75.2049 147.431 74.9871 147.569 74.7871Z" fill="#B8A895" stroke="#F5F3F1"/>
<path opacity="0.971" fill-rule="evenodd" clip-rule="evenodd" d="M147.569 94.6621C157.588 96.7278 164.723 101.521 168.976 109.043C173.262 101.563 180.398 96.7696 190.384 94.6621C191.275 99.5778 190.24 104.197 187.279 108.52C184.307 110.997 180.766 112.783 176.657 113.88C173.422 115.814 171.134 118.298 169.793 121.332C168.366 118.84 166.405 116.617 163.91 114.665C161.295 113.503 158.572 112.544 155.74 111.789C151.363 109.678 148.803 106.583 148.059 102.506C147.727 100.111 147.455 97.7146 147.242 95.3158C147.322 95.0799 147.431 94.8621 147.569 94.6621Z" fill="#B8A895" stroke="#F5F3F1"/>
<path opacity="0.971" fill-rule="evenodd" clip-rule="evenodd" d="M147.569 112.702C157.588 114.768 164.723 119.561 168.976 127.083C173.262 119.603 180.398 114.81 190.384 112.702C191.275 117.618 190.24 122.237 187.279 126.56C184.307 129.037 180.766 130.823 176.657 131.92C173.422 133.854 171.134 136.338 169.793 139.372C168.366 136.88 166.405 134.657 163.91 132.705C161.295 131.543 158.572 130.584 155.74 129.829C151.363 127.718 148.803 124.624 148.059 120.546C147.727 118.151 147.455 115.755 147.242 113.356C147.322 113.12 147.431 112.902 147.569 112.702Z" fill="#B8A895" stroke="#F5F3F1"/>
<path opacity="0.973" fill-rule="evenodd" clip-rule="evenodd" d="M242.328 18.0469C243.097 18.4656 243.805 18.9885 244.453 19.6157C247.446 22.9228 249.843 26.4962 251.643 30.3361C253.004 33.956 252.242 37.268 249.355 40.2722C247.388 42.2382 245.155 43.9812 242.655 45.5016C238.415 43.1983 235.31 40.1477 233.34 36.35C232.597 33.6557 232.924 31.041 234.321 28.5058C236.42 24.7065 239.089 21.2202 242.328 18.0469Z" fill="#B8A895" stroke="#F5F3F1"/>
<path opacity="0.972" fill-rule="evenodd" clip-rule="evenodd" d="M221.086 38.7021C231.099 40.5644 238.235 45.2709 242.493 52.8217C246.891 45.5988 253.918 40.8923 263.574 38.7021C264.735 43.3313 263.918 47.7763 261.122 52.0373C260.427 52.8557 259.61 53.5965 258.671 54.2598C256.091 55.597 253.368 56.73 250.5 57.659C247.072 59.4888 244.675 61.9728 243.31 65.111C242.192 63.1965 240.776 61.4096 239.061 59.7508C238.081 59.1408 237.1 58.5305 236.12 57.9205C233.717 57.1329 231.32 56.3485 228.93 55.5672C224.651 53.5343 222.2 50.5273 221.576 46.5464C221.128 43.9044 220.964 41.2897 221.086 38.7021Z" fill="#B8A895" stroke="#F5F3F1"/>
<path opacity="0.971" fill-rule="evenodd" clip-rule="evenodd" d="M221.086 56.7461C231.12 58.6282 238.256 63.3347 242.494 70.8657C246.963 63.41 254.208 58.7035 264.228 56.7461C264.427 60.385 263.936 63.9586 262.757 67.4665C261.806 69.4488 260.335 71.1483 258.345 72.5653C256.046 73.6729 253.649 74.6314 251.155 75.4415C247.281 77.2802 244.666 79.9386 243.311 83.4164C241.744 79.9367 238.911 77.2783 234.813 75.4415C227.409 74.1372 222.997 70.5203 221.577 64.5903C221.119 61.9549 220.956 59.3402 221.086 56.7461Z" fill="#B8A895" stroke="#F5F3F1"/>
<path opacity="0.972" fill-rule="evenodd" clip-rule="evenodd" d="M221.085 74.7871C231.054 76.7712 238.244 81.4777 242.655 88.9067C247.011 81.5467 254.093 76.8402 263.899 74.7871C264.635 79.3404 263.818 83.6981 261.448 87.8608C260.425 88.9415 259.281 89.9437 258.016 90.8678C255.413 91.9118 252.799 92.9577 250.172 94.0054C246.811 95.8533 244.523 98.3373 243.309 101.457C240.94 96.4704 236.473 93.3763 229.909 92.1751C225.152 90.0967 222.374 86.9156 221.575 82.6313C221.243 80.2362 220.97 77.8396 220.758 75.4408C220.837 75.2049 220.946 74.9871 221.085 74.7871Z" fill="#B8A895" stroke="#F5F3F1"/>
<path opacity="0.971" fill-rule="evenodd" clip-rule="evenodd" d="M221.085 92.8281C231.103 94.8938 238.239 99.6874 242.492 107.209C246.778 99.7295 253.914 94.9356 263.899 92.8281C264.79 97.7438 263.755 102.363 260.794 106.686C257.822 109.163 254.282 110.949 250.172 112.046C246.938 113.98 244.65 116.464 243.309 119.498C241.882 117.006 239.921 114.783 237.426 112.831C234.811 111.669 232.087 110.71 229.255 109.955C224.879 107.844 222.319 104.75 221.575 100.672C221.243 98.2772 220.97 95.8806 220.758 93.4818C220.837 93.246 220.946 93.0282 221.085 92.8281Z" fill="#B8A895" stroke="#F5F3F1"/>
<path opacity="0.971" fill-rule="evenodd" clip-rule="evenodd" d="M221.085 112.703C231.103 114.769 238.239 119.562 242.492 127.084C246.778 119.604 253.914 114.811 263.899 112.703C264.79 117.619 263.755 122.238 260.794 126.561C257.822 129.038 254.282 130.824 250.172 131.921C246.938 133.855 244.65 136.339 243.309 139.373C241.882 136.881 239.921 134.658 237.426 132.706C234.811 131.544 232.087 130.585 229.255 129.83C224.879 127.719 222.319 124.625 221.575 120.547C221.243 118.152 220.97 115.756 220.758 113.357C220.837 113.121 220.946 112.903 221.085 112.703Z" fill="#B8A895" stroke="#F5F3F1"/>
<path opacity="0.973" fill-rule="evenodd" clip-rule="evenodd" d="M316.211 37.9209C315.442 38.3396 314.734 38.8625 314.086 39.4897C311.093 42.7968 308.696 46.3702 306.896 50.2102C305.535 53.83 306.297 57.142 309.184 60.1462C311.151 62.1122 313.384 63.8552 315.884 65.3757C320.124 63.0723 323.229 60.0217 325.199 56.2241C325.942 53.5297 325.615 50.915 324.218 48.3799C322.119 44.5805 319.45 41.0942 316.211 37.9209Z" fill="#B8A895" stroke="#F5F3F1"/>
<path opacity="0.972" fill-rule="evenodd" clip-rule="evenodd" d="M337.453 58.5762C327.44 60.4384 320.304 65.1449 316.046 72.6958C311.648 65.4728 304.621 60.7663 294.965 58.5762C293.804 63.2053 294.621 67.6504 297.417 71.9113C298.112 72.7298 298.929 73.4705 299.868 74.1339C302.448 75.471 305.171 76.604 308.039 77.533C311.467 79.3628 313.864 81.8468 315.229 84.985C316.347 83.0705 317.763 81.2836 319.478 79.6248C320.458 79.0148 321.439 78.4045 322.419 77.7945C324.822 77.0069 327.219 76.2225 329.609 75.4412C333.888 73.4083 336.339 70.4013 336.963 66.4204C337.411 63.7785 337.575 61.1637 337.453 58.5762Z" fill="#B8A895" stroke="#F5F3F1"/>
<path opacity="0.971" fill-rule="evenodd" clip-rule="evenodd" d="M337.453 76.6201C327.419 78.5022 320.283 83.2087 316.045 90.7397C311.576 83.284 304.331 78.5775 294.311 76.6201C294.112 80.2591 294.603 83.8326 295.782 87.3405C296.733 89.3228 298.204 91.0224 300.194 92.4393C302.493 93.5469 304.89 94.5055 307.384 95.3155C311.258 97.1542 313.873 99.8126 315.228 103.29C316.795 99.8108 319.628 97.1524 323.726 95.3155C331.13 94.0113 335.542 90.3943 336.962 84.4643C337.42 81.8289 337.583 79.2142 337.453 76.6201Z" fill="#B8A895" stroke="#F5F3F1"/>
<path opacity="0.972" fill-rule="evenodd" clip-rule="evenodd" d="M337.454 94.6611C327.485 96.6452 320.295 101.352 315.884 108.781C311.528 101.421 304.446 96.7142 294.64 94.6611C293.904 99.2144 294.721 103.572 297.091 107.735C298.114 108.815 299.258 109.818 300.523 110.742C303.126 111.786 305.741 112.832 308.367 113.879C311.728 115.727 314.016 118.211 315.23 121.331C317.599 116.344 322.066 113.25 328.63 112.049C333.387 109.971 336.165 106.79 336.964 102.505C337.296 100.11 337.569 97.7136 337.781 95.3148C337.702 95.079 337.593 94.8612 337.454 94.6611Z" fill="#B8A895" stroke="#F5F3F1"/>
<path opacity="0.971" fill-rule="evenodd" clip-rule="evenodd" d="M337.454 112.702C327.436 114.768 320.3 119.561 316.047 127.083C311.761 119.603 304.625 114.81 294.64 112.702C293.749 117.618 294.784 122.237 297.745 126.56C300.717 129.037 304.257 130.823 308.367 131.92C311.601 133.854 313.889 136.338 315.23 139.372C316.657 136.88 318.618 134.657 321.113 132.705C323.728 131.543 326.452 130.584 329.284 129.829C333.66 127.718 336.22 124.624 336.964 120.546C337.296 118.151 337.569 115.755 337.781 113.356C337.702 113.12 337.593 112.902 337.454 112.702Z" fill="#B8A895" stroke="#F5F3F1"/>
</g>
<defs>
<clipPath id="clip0_2298_1449">
<rect width="337.562" height="139.367" fill="white" transform="translate(0.21875 0.00585938)"/>
</clipPath>
</defs>
</svg>
