<svg width="105" height="47" viewBox="0 0 105 47" fill="none" xmlns="http://www.w3.org/2000/svg">
<g clip-path="url(#clip0_2316_1015)">
<path d="M102.717 20.7046C102.261 20.2359 101.646 19.7885 100.85 19.3841C100.704 19.3307 88.8298 14.9577 76.5644 10.8692C70.3943 8.81247 64.1456 6.8363 59.3227 5.5424C56.9112 4.89523 54.8498 4.41972 53.3833 4.19166C52.65 4.0773 52.0603 4.02875 51.7088 4.03536C51.5967 4.0376 51.5752 4.05779 51.5298 4.07539C49.5949 6.20875 48.2666 10.9101 47.6669 15.1085C47.5195 16.1479 47.399 17.1909 47.3056 18.2365L50.8773 18.2366L51.0669 18.2901C51.0669 18.2901 52.4326 18.6691 53.8442 19.3519C54.5503 19.6934 55.2815 20.1061 55.9194 20.6723C56.557 21.2381 57.1936 22.0481 57.1953 23.1502C57.1964 24.2501 56.563 25.0601 55.9283 25.6258C55.2938 26.1922 54.5663 26.6056 53.8636 26.9477C52.458 27.632 51.0983 28.0132 51.0983 28.0132L50.907 28.0676L47.3056 28.0676C47.3992 29.1132 47.5197 30.1562 47.667 31.1955C48.2668 35.394 49.5949 40.0952 51.5299 42.2284C51.5751 42.246 51.5966 42.2664 51.7089 42.2684C52.0603 42.2752 52.6501 42.2265 53.3833 42.1123C54.8499 41.8843 56.9113 41.4088 59.3229 40.7616C64.1457 39.4677 70.3944 37.4916 76.5645 35.4348C88.8299 31.3463 100.704 26.9734 100.85 26.92C103.004 25.8255 103.814 24.4093 103.814 23.152C103.814 22.359 103.493 21.5029 102.717 20.704L102.717 20.7046ZM54.1291 22.9054C54.0991 22.8748 54.0643 22.8418 54.0247 22.8066C53.708 22.5258 53.1673 22.1952 52.6014 21.9215C51.5977 21.4358 50.6794 21.1566 50.4575 21.0906H41.9725L41.9725 25.2133L50.4834 25.2132C51.2139 24.9912 51.9262 24.7131 52.6138 24.3813C53.1766 24.1077 53.7142 23.7764 54.0281 23.4962C54.2393 23.3078 54.3035 23.1912 54.3257 23.1533C54.3074 23.1216 54.2624 23.0401 54.1289 22.9054H54.1291ZM54.3259 23.1533C54.3365 23.1718 54.341 23.1779 54.3409 23.154C54.3409 23.1293 54.3366 23.1347 54.3259 23.1533ZM39.1188 21.0908L36.8985 21.091L36.8985 25.2131L39.1186 25.2131L39.1187 21.0909L39.1188 21.0908ZM34.0444 18.2798L11.5283 17.2044L11.5283 29.1L34.0445 28.0245L34.0444 18.2798ZM8.67407 17.0683L6.60574 16.9693C6.33261 16.9704 6.14941 17.0399 5.8876 17.2692C5.62322 17.5004 5.32026 17.92 5.06283 18.499C4.54818 19.6572 4.23424 21.4079 4.23424 23.1521C4.23424 24.8962 4.54818 26.6469 5.06282 27.8052C5.32026 28.3842 5.62299 28.8035 5.8876 29.0349C6.14952 29.2641 6.33262 29.3337 6.60574 29.3349L8.67407 29.2361L8.67419 17.068L8.67407 17.0683Z" fill="#0A2240"/>
</g>
<defs>
<clipPath id="clip0_2316_1015">
<rect width="105" height="46.4602" fill="white"/>
</clipPath>
</defs>
</svg>
