<svg width="42" height="42" viewBox="0 0 42 42" fill="none" xmlns="http://www.w3.org/2000/svg">
<path d="M37.665 10.6233C36.4402 11.1516 35.1073 11.5319 33.7344 11.68C35.1598 10.8332 36.2272 9.49535 36.7364 7.91753C35.3988 8.7132 33.9336 9.27114 32.4056 9.5666C31.7669 8.88386 30.9945 8.33996 30.1365 7.96879C29.2785 7.59762 28.3532 7.40713 27.4183 7.4092C23.6359 7.4092 20.5939 10.4752 20.5939 14.2376C20.5939 14.766 20.6579 15.2943 20.762 15.8026C15.0983 15.5065 10.0471 12.8007 6.68889 8.65801C6.07699 9.70315 5.75634 10.8932 5.76028 12.1042C5.76028 14.4738 6.96507 16.5631 8.80226 17.7919C7.71957 17.7493 6.66224 17.4517 5.71626 16.9234V17.0074C5.71626 20.3256 8.06178 23.0754 11.1878 23.7078C10.6009 23.8602 9.99706 23.9382 9.39064 23.9399C8.94635 23.9399 8.52608 23.8959 8.1018 23.8359C8.96636 26.5416 11.484 28.5069 14.4819 28.5709C12.1364 30.4081 9.19851 31.4888 6.00845 31.4888C5.43607 31.4888 4.90773 31.4688 4.35938 31.4048C7.38534 33.346 10.9757 34.4668 14.8422 34.4668C27.3943 34.4668 34.2628 24.068 34.2628 15.0421C34.2628 14.746 34.2628 14.4498 34.2428 14.1536C35.5716 13.1809 36.7364 11.9762 37.665 10.6233Z" fill="white"/>
</svg>
