<svg width="459" height="170" viewBox="0 0 459 170" fill="none" xmlns="http://www.w3.org/2000/svg">
<g clip-path="url(#clip0_2327_2711)">
<path opacity="0.973" fill-rule="evenodd" clip-rule="evenodd" d="M22.2813 15.3569C23.0504 15.7756 23.7586 16.2986 24.4057 16.9258C27.3988 20.2328 29.7958 23.8063 31.596 27.6462C32.9575 31.266 32.1947 34.5781 29.3082 37.5822C27.341 39.5482 25.1078 41.2912 22.6082 42.8117C18.3682 40.5084 15.2633 37.4577 13.2935 33.6601C12.5501 30.9658 12.877 28.351 14.274 25.8159C16.3727 22.0166 19.0418 18.5303 22.2813 15.3569Z" fill="#6C863D" stroke="#F5F3F1"/>
<path opacity="0.972" fill-rule="evenodd" clip-rule="evenodd" d="M1.03888 36.0127C11.052 37.8749 18.1878 42.5814 22.4462 50.1323C26.844 42.9093 33.8708 38.2028 43.5267 36.0127C44.6886 40.6418 43.8715 45.0869 41.0755 49.3479C40.38 50.1663 39.5629 50.907 38.6243 51.5704C36.0446 52.9076 33.3211 54.0405 30.4535 54.9696C27.0254 56.7993 24.6284 59.2833 23.2633 62.4216C22.1455 60.507 20.7293 58.7201 19.0145 57.0613C18.034 56.4513 17.0535 55.841 16.073 55.231C13.6697 54.4435 11.273 53.659 8.88279 52.8778C4.60423 50.8448 2.15301 47.8379 1.52913 43.8569C1.08075 41.215 0.917336 38.6002 1.03888 36.0127Z" fill="#6C863D" stroke="#F5F3F1"/>
<path opacity="0.971" fill-rule="evenodd" clip-rule="evenodd" d="M1.03954 54.0566C11.0736 55.9387 18.2094 60.6453 22.4469 68.1762C26.9166 60.7206 34.1614 56.014 44.181 54.0566C44.3797 57.6956 43.8895 61.2691 42.7103 64.7771C41.7592 66.7593 40.2885 68.4589 38.2981 69.8758C35.9988 70.9834 33.6019 71.942 31.1078 72.752C27.2339 74.5907 24.6193 77.2491 23.2639 80.727C21.6968 77.2473 18.8643 74.5889 14.7664 72.752C7.36189 71.4478 2.94969 67.8308 1.52978 61.9009C1.07248 59.2655 0.909065 56.6507 1.03954 54.0566Z" fill="#6C863D" stroke="#F5F3F1"/>
<path opacity="0.972" fill-rule="evenodd" clip-rule="evenodd" d="M1.03777 72.0972C11.0074 74.0812 18.1976 78.7878 22.6085 86.2168C26.9645 78.8568 34.0459 74.1503 43.8524 72.0972C44.5884 76.6505 43.7714 81.0082 41.4012 85.1709C40.3779 86.2515 39.234 87.2538 37.9695 88.1778C35.3663 89.2219 32.7516 90.2678 30.1256 91.3155C26.7641 93.1633 24.4763 95.6473 23.2622 98.7675C20.8928 93.7804 16.4262 90.6864 9.86216 89.4852C5.1048 87.4067 2.32675 84.2256 1.52801 79.9414C1.19598 77.5463 0.923605 75.1496 0.710938 72.7509C0.790422 72.515 0.899387 72.2972 1.03777 72.0972Z" fill="#6C863D" stroke="#F5F3F1"/>
<path opacity="0.971" fill-rule="evenodd" clip-rule="evenodd" d="M1.03777 90.1382C11.0563 92.2038 18.1921 96.9974 22.4451 104.519C26.7311 97.0395 33.8671 92.2457 43.8524 90.1382C44.7433 95.0539 43.7083 99.6731 40.7475 103.996C37.7753 106.473 34.2348 108.259 30.1256 109.357C26.8909 111.29 24.6031 113.774 23.2622 116.809C21.8352 114.316 19.8742 112.093 17.3792 110.141C14.7641 108.979 12.0406 108.02 9.2085 107.265C4.83222 105.154 2.27204 102.06 1.52801 97.9824C1.19598 95.5873 0.923605 93.1906 0.710938 90.7919C0.790422 90.556 0.899387 90.3382 1.03777 90.1382Z" fill="#6C863D" stroke="#F5F3F1"/>
<path opacity="0.971" fill-rule="evenodd" clip-rule="evenodd" d="M1.03777 110.013C11.0563 112.078 18.1921 116.872 22.4451 124.394C26.7311 116.914 33.8671 112.12 43.8524 110.013C44.7433 114.928 43.7083 119.548 40.7475 123.871C37.7753 126.347 34.2348 128.134 30.1256 129.231C26.8909 131.164 24.6031 133.648 23.2622 136.683C21.8352 134.19 19.8742 131.968 17.3792 130.015C14.7641 128.853 12.0406 127.895 9.2085 127.139C4.83222 125.028 2.27204 121.934 1.52801 117.857C1.19598 115.462 0.923605 113.065 0.710938 110.666C0.790422 110.431 0.899387 110.213 1.03777 110.013Z" fill="#6C863D" stroke="#F5F3F1"/>
<path opacity="0.971" fill-rule="evenodd" clip-rule="evenodd" d="M1.03777 128.054C11.0563 130.119 18.1921 134.913 22.4451 142.435C26.7311 134.955 33.8671 130.161 43.8524 128.054C44.7433 132.969 43.7083 137.589 40.7475 141.912C37.7753 144.388 34.2348 146.175 30.1256 147.272C26.8909 149.205 24.6031 151.689 23.2622 154.724C21.8352 152.231 19.8742 150.009 17.3792 148.056C14.7641 146.894 12.0406 145.936 9.2085 145.18C4.83222 143.069 2.27204 139.975 1.52801 135.898C1.19598 133.503 0.923605 131.106 0.710938 128.707C0.790422 128.472 0.899387 128.254 1.03777 128.054Z" fill="#6C863D" stroke="#F5F3F1"/>
<path opacity="0.973" fill-rule="evenodd" clip-rule="evenodd" d="M125.793 33.3979C126.562 33.8166 127.27 34.3396 127.917 34.9668C130.911 38.2738 133.308 41.8473 135.108 45.6872C136.469 49.3071 135.706 52.6191 132.82 55.6232C130.853 57.5892 128.619 59.3322 126.12 60.8527C121.88 58.5494 118.775 55.4988 116.805 51.7011C116.062 49.0068 116.389 46.392 117.786 43.8569C119.884 40.0576 122.554 36.5713 125.793 33.3979Z" fill="#6C863D" stroke="#F5F3F1"/>
<path opacity="0.972" fill-rule="evenodd" clip-rule="evenodd" d="M104.551 54.0537C114.564 55.9159 121.699 60.6225 125.958 68.1733C130.356 60.9503 137.383 56.2438 147.038 54.0537C148.2 58.6828 147.383 63.1279 144.587 67.3889C143.892 68.2073 143.075 68.948 142.136 69.6114C139.556 70.9486 136.833 72.0815 133.965 73.0106C130.537 74.8404 128.14 77.3244 126.775 80.4626C125.657 78.5481 124.241 76.7611 122.526 75.1024C121.546 74.4923 120.565 73.8821 119.585 73.272C117.181 72.4845 114.785 71.7001 112.395 70.9188C108.116 68.8858 105.665 65.8789 105.041 61.8979C104.592 59.256 104.429 56.6413 104.551 54.0537Z" fill="#6C863D" stroke="#F5F3F1"/>
<path opacity="0.971" fill-rule="evenodd" clip-rule="evenodd" d="M104.551 72.0977C114.585 73.9797 121.721 78.6863 125.959 86.2172C130.428 78.7616 137.673 74.055 147.693 72.0977C147.891 75.7366 147.401 79.3102 146.222 82.8181C145.271 84.8003 143.8 86.4999 141.81 87.9168C139.511 89.0244 137.114 89.983 134.62 90.793C130.746 92.6317 128.131 95.2901 126.776 98.768C125.209 95.2883 122.376 92.6299 118.278 90.793C110.874 89.4888 106.461 85.8718 105.041 79.9419C104.584 77.3065 104.421 74.6917 104.551 72.0977Z" fill="#6C863D" stroke="#F5F3F1"/>
<path opacity="0.972" fill-rule="evenodd" clip-rule="evenodd" d="M104.549 90.1382C114.519 92.1222 121.709 96.8288 126.12 104.258C130.476 96.8978 137.558 92.1913 147.364 90.1382C148.1 94.6915 147.283 99.0492 144.913 103.212C143.89 104.293 142.746 105.295 141.481 106.219C138.878 107.263 136.263 108.309 133.637 109.357C130.276 111.204 127.988 113.688 126.774 116.809C124.405 111.821 119.938 108.727 113.374 107.526C108.617 105.448 105.838 102.267 105.04 97.9824C104.708 95.5873 104.435 93.1906 104.223 90.7919C104.302 90.556 104.411 90.3382 104.549 90.1382Z" fill="#6C863D" stroke="#F5F3F1"/>
<path opacity="0.971" fill-rule="evenodd" clip-rule="evenodd" d="M104.549 108.179C114.568 110.245 121.704 115.038 125.957 122.56C130.243 115.081 137.379 110.287 147.364 108.179C148.255 113.095 147.22 117.714 144.259 122.037C141.287 124.514 137.747 126.3 133.637 127.398C130.403 129.331 128.115 131.815 126.774 134.85C125.347 132.357 123.386 130.134 120.891 128.182C118.276 127.02 115.552 126.061 112.72 125.306C108.344 123.195 105.784 120.101 105.04 116.023C104.708 113.628 104.435 111.232 104.223 108.833C104.302 108.597 104.411 108.379 104.549 108.179Z" fill="#6C863D" stroke="#F5F3F1"/>
<path opacity="0.971" fill-rule="evenodd" clip-rule="evenodd" d="M104.549 128.054C114.568 130.119 121.704 134.913 125.957 142.435C130.243 134.955 137.379 130.161 147.364 128.054C148.255 132.969 147.22 137.589 144.259 141.912C141.287 144.388 137.747 146.175 133.637 147.272C130.403 149.205 128.115 151.689 126.774 154.724C125.347 152.231 123.386 150.009 120.891 148.056C118.276 146.894 115.552 145.936 112.72 145.18C108.344 143.069 105.784 139.975 105.04 135.898C104.708 133.503 104.435 131.106 104.223 128.707C104.302 128.472 104.411 128.254 104.549 128.054Z" fill="#6C863D" stroke="#F5F3F1"/>
<path opacity="0.973" fill-rule="evenodd" clip-rule="evenodd" d="M229.68 53.2725C228.911 53.6912 228.202 54.2141 227.555 54.8413C224.562 58.1483 222.165 61.7218 220.365 65.5617C219.003 69.1816 219.766 72.4936 222.653 75.4977C224.62 77.4638 226.853 79.2067 229.353 80.7272C233.593 78.4239 236.698 75.3733 238.667 71.5756C239.411 68.8813 239.084 66.2666 237.687 63.7314C235.588 59.9321 232.919 56.4458 229.68 53.2725Z" fill="#6C863D" stroke="#F5F3F1"/>
<path opacity="0.972" fill-rule="evenodd" clip-rule="evenodd" d="M250.922 73.9282C240.909 75.7904 233.773 80.497 229.515 88.0478C225.117 80.8249 218.09 76.1183 208.434 73.9282C207.272 78.5574 208.089 83.0024 210.885 87.2634C211.581 88.0818 212.398 88.8226 213.337 89.4859C215.916 90.8231 218.64 91.9561 221.507 92.8851C224.936 94.7149 227.332 97.1989 228.698 100.337C229.815 98.4226 231.232 96.6357 232.946 94.9769C233.927 94.3669 234.907 93.7566 235.888 93.1466C238.291 92.359 240.688 91.5746 243.078 90.7933C247.357 88.7603 249.808 85.7534 250.432 81.7724C250.88 79.1305 251.044 76.5158 250.922 73.9282Z" fill="#6C863D" stroke="#F5F3F1"/>
<path opacity="0.971" fill-rule="evenodd" clip-rule="evenodd" d="M250.921 91.9722C240.887 93.8543 233.752 98.5608 229.514 106.092C225.044 98.6361 217.8 93.9296 207.78 91.9722C207.581 95.6111 208.071 99.1847 209.251 102.693C210.202 104.675 211.672 106.374 213.663 107.791C215.962 108.899 218.359 109.858 220.853 110.668C224.727 112.506 227.342 115.165 228.697 118.643C230.264 115.163 233.097 112.504 237.195 110.668C244.599 109.363 249.011 105.746 250.431 99.8164C250.888 97.181 251.052 94.5662 250.921 91.9722Z" fill="#6C863D" stroke="#F5F3F1"/>
<path opacity="0.972" fill-rule="evenodd" clip-rule="evenodd" d="M250.923 110.013C240.954 111.997 233.763 116.703 229.352 124.132C224.996 116.772 217.915 112.066 208.109 110.013C207.373 114.566 208.19 118.924 210.56 123.086C211.583 124.167 212.727 125.169 213.991 126.093C216.595 127.137 219.209 128.183 221.835 129.231C225.197 131.079 227.485 133.563 228.699 136.683C231.068 131.696 235.535 128.602 242.099 127.401C246.856 125.322 249.634 122.141 250.433 117.857C250.765 115.462 251.037 113.065 251.25 110.666C251.171 110.431 251.062 110.213 250.923 110.013Z" fill="#6C863D" stroke="#F5F3F1"/>
<path opacity="0.971" fill-rule="evenodd" clip-rule="evenodd" d="M250.923 128.054C240.905 130.119 233.769 134.913 229.516 142.435C225.23 134.955 218.094 130.161 208.109 128.054C207.218 132.969 208.253 137.589 211.213 141.912C214.186 144.388 217.726 146.175 221.835 147.272C225.07 149.205 227.358 151.689 228.699 154.724C230.126 152.231 232.087 150.009 234.582 148.056C237.197 146.894 239.92 145.936 242.752 145.18C247.129 143.069 249.689 139.975 250.433 135.898C250.765 133.503 251.037 131.106 251.25 128.707C251.171 128.472 251.062 128.254 250.923 128.054Z" fill="#6C863D" stroke="#F5F3F1"/>
<path opacity="0.973" fill-rule="evenodd" clip-rule="evenodd" d="M332.82 33.3979C333.589 33.8166 334.298 34.3396 334.945 34.9668C337.938 38.2738 340.335 41.8473 342.135 45.6872C343.497 49.3071 342.734 52.6191 339.847 55.6232C337.88 57.5892 335.647 59.3322 333.147 60.8527C328.907 58.5494 325.802 55.4988 323.833 51.7011C323.089 49.0068 323.416 46.392 324.813 43.8569C326.912 40.0576 329.581 36.5713 332.82 33.3979Z" fill="#6C863D" stroke="#F5F3F1"/>
<path opacity="0.972" fill-rule="evenodd" clip-rule="evenodd" d="M311.578 54.0537C321.591 55.9159 328.727 60.6225 332.985 68.1733C337.383 60.9503 344.41 56.2438 354.066 54.0537C355.228 58.6828 354.411 63.1279 351.615 67.3889C350.919 68.2073 350.102 68.948 349.163 69.6114C346.584 70.9486 343.86 72.0815 340.993 73.0106C337.564 74.8404 335.168 77.3244 333.802 80.4626C332.685 78.5481 331.268 76.7611 329.554 75.1024C328.573 74.4923 327.593 73.8821 326.612 73.272C324.209 72.4845 321.812 71.7001 319.422 70.9188C315.143 68.8858 312.692 65.8789 312.068 61.8979C311.62 59.256 311.456 56.6413 311.578 54.0537Z" fill="#6C863D" stroke="#F5F3F1"/>
<path opacity="0.971" fill-rule="evenodd" clip-rule="evenodd" d="M311.579 72.0977C321.613 73.9797 328.748 78.6863 332.986 86.2172C337.456 78.7616 344.7 74.055 354.72 72.0977C354.919 75.7366 354.429 79.3102 353.249 82.8181C352.298 84.8003 350.828 86.4999 348.837 87.9168C346.538 89.0244 344.141 89.983 341.647 90.793C337.773 92.6317 335.158 95.2901 333.803 98.768C332.236 95.2883 329.403 92.6299 325.305 90.793C317.901 89.4888 313.489 85.8718 312.069 79.9419C311.612 77.3065 311.448 74.6917 311.579 72.0977Z" fill="#6C863D" stroke="#F5F3F1"/>
<path opacity="0.972" fill-rule="evenodd" clip-rule="evenodd" d="M311.577 90.1382C321.546 92.1222 328.737 96.8288 333.148 104.258C337.504 96.8978 344.585 92.1913 354.391 90.1382C355.127 94.6915 354.31 99.0492 351.94 103.212C350.917 104.293 349.773 105.295 348.509 106.219C345.905 107.263 343.291 108.309 340.665 109.357C337.303 111.204 335.015 113.688 333.801 116.809C331.432 111.821 326.965 108.727 320.401 107.526C315.644 105.448 312.866 102.267 312.067 97.9824C311.735 95.5873 311.463 93.1906 311.25 90.7919C311.329 90.556 311.438 90.3382 311.577 90.1382Z" fill="#6C863D" stroke="#F5F3F1"/>
<path opacity="0.971" fill-rule="evenodd" clip-rule="evenodd" d="M311.577 108.179C321.595 110.245 328.731 115.038 332.984 122.56C337.27 115.081 344.406 110.287 354.391 108.179C355.282 113.095 354.247 117.714 351.287 122.037C348.314 124.514 344.774 126.3 340.665 127.398C337.43 129.331 335.142 131.815 333.801 134.85C332.374 132.357 330.413 130.134 327.918 128.182C325.303 127.02 322.58 126.061 319.748 125.306C315.371 123.195 312.811 120.101 312.067 116.023C311.735 113.628 311.463 111.232 311.25 108.833C311.329 108.597 311.438 108.379 311.577 108.179Z" fill="#6C863D" stroke="#F5F3F1"/>
<path opacity="0.971" fill-rule="evenodd" clip-rule="evenodd" d="M311.577 128.054C321.595 130.119 328.731 134.913 332.984 142.435C337.27 134.955 344.406 130.161 354.391 128.054C355.282 132.969 354.247 137.589 351.287 141.912C348.314 144.388 344.774 146.175 340.665 147.272C337.43 149.205 335.142 151.689 333.801 154.724C332.374 152.231 330.413 150.009 327.918 148.056C325.303 146.894 322.58 145.936 319.748 145.18C315.371 143.069 312.811 139.975 312.067 135.898C311.735 133.503 311.463 131.106 311.25 128.707C311.329 128.472 311.438 128.254 311.577 128.054Z" fill="#6C863D" stroke="#F5F3F1"/>
<path opacity="0.973" fill-rule="evenodd" clip-rule="evenodd" d="M436.332 15.3569C437.101 15.7756 437.809 16.2986 438.457 16.9258C441.45 20.2328 443.847 23.8063 445.647 27.6462C447.008 31.266 446.246 34.5781 443.359 37.5822C441.392 39.5482 439.159 41.2912 436.659 42.8117C432.419 40.5084 429.314 37.4577 427.344 33.6601C426.601 30.9658 426.928 28.351 428.325 25.8159C430.424 22.0166 433.093 18.5303 436.332 15.3569Z" fill="#6C863D" stroke="#F5F3F1"/>
<path opacity="0.972" fill-rule="evenodd" clip-rule="evenodd" d="M415.09 36.0127C425.103 37.8749 432.239 42.5814 436.497 50.1323C440.895 42.9093 447.922 38.2028 457.577 36.0127C458.739 40.6418 457.922 45.0869 455.126 49.3479C454.431 50.1663 453.614 50.907 452.675 51.5704C450.095 52.9076 447.372 54.0405 444.504 54.9696C441.076 56.7993 438.679 59.2833 437.314 62.4216C436.196 60.507 434.78 58.7201 433.065 57.0613C432.085 56.4513 431.104 55.841 430.124 55.231C427.72 54.4435 425.324 53.659 422.934 52.8778C418.655 50.8448 416.204 47.8379 415.58 43.8569C415.132 41.215 414.968 38.6002 415.09 36.0127Z" fill="#6C863D" stroke="#F5F3F1"/>
<path opacity="0.971" fill-rule="evenodd" clip-rule="evenodd" d="M415.09 54.0566C425.124 55.9387 432.26 60.6453 436.498 68.1762C440.967 60.7206 448.212 56.014 458.232 54.0566C458.431 57.6956 457.94 61.2691 456.761 64.7771C455.81 66.7593 454.339 68.4589 452.349 69.8758C450.05 70.9834 447.653 71.942 445.159 72.752C441.285 74.5907 438.67 77.2491 437.315 80.727C435.748 77.2473 432.915 74.5889 428.817 72.752C421.413 71.4478 417 67.8308 415.581 61.9009C415.123 59.2655 414.96 56.6507 415.09 54.0566Z" fill="#6C863D" stroke="#F5F3F1"/>
<path opacity="0.972" fill-rule="evenodd" clip-rule="evenodd" d="M415.089 72.0972C425.058 74.0812 432.248 78.7878 436.659 86.2168C441.015 78.8568 448.097 74.1503 457.903 72.0972C458.639 76.6505 457.822 81.0082 455.452 85.1709C454.429 86.2515 453.285 87.2538 452.02 88.1778C449.417 89.2219 446.802 90.2678 444.176 91.3155C440.815 93.1633 438.527 95.6473 437.313 98.7675C434.944 93.7804 430.477 90.6864 423.913 89.4852C419.156 87.4067 416.378 84.2256 415.579 79.9414C415.247 77.5463 414.974 75.1496 414.762 72.7509C414.841 72.515 414.95 72.2972 415.089 72.0972Z" fill="#6C863D" stroke="#F5F3F1"/>
<path opacity="0.971" fill-rule="evenodd" clip-rule="evenodd" d="M415.089 90.1382C425.107 92.2038 432.243 96.9974 436.496 104.519C440.782 97.0395 447.918 92.2457 457.903 90.1382C458.794 95.0539 457.759 99.6731 454.798 103.996C451.826 106.473 448.286 108.259 444.176 109.357C440.942 111.29 438.654 113.774 437.313 116.809C435.886 114.316 433.925 112.093 431.43 110.141C428.815 108.979 426.091 108.02 423.259 107.265C418.883 105.154 416.323 102.06 415.579 97.9824C415.247 95.5873 414.974 93.1906 414.762 90.7919C414.841 90.556 414.95 90.3382 415.089 90.1382Z" fill="#6C863D" stroke="#F5F3F1"/>
<path opacity="0.971" fill-rule="evenodd" clip-rule="evenodd" d="M415.089 110.013C425.107 112.078 432.243 116.872 436.496 124.394C440.782 116.914 447.918 112.12 457.903 110.013C458.794 114.928 457.759 119.548 454.798 123.871C451.826 126.347 448.286 128.134 444.176 129.231C440.942 131.164 438.654 133.648 437.313 136.683C435.886 134.19 433.925 131.968 431.43 130.015C428.815 128.853 426.091 127.895 423.259 127.139C418.883 125.028 416.323 121.934 415.579 117.857C415.247 115.462 414.974 113.065 414.762 110.666C414.841 110.431 414.95 110.213 415.089 110.013Z" fill="#6C863D" stroke="#F5F3F1"/>
<path opacity="0.971" fill-rule="evenodd" clip-rule="evenodd" d="M415.089 128.054C425.107 130.119 432.243 134.913 436.496 142.435C440.782 134.955 447.918 130.161 457.903 128.054C458.794 132.969 457.759 137.589 454.798 141.912C451.826 144.388 448.286 146.175 444.176 147.272C440.942 149.205 438.654 151.689 437.313 154.724C435.886 152.231 433.925 150.009 431.43 148.056C428.815 146.894 426.091 145.936 423.259 145.18C418.883 143.069 416.323 139.975 415.579 135.898C415.247 133.503 414.974 131.106 414.762 128.707C414.841 128.472 414.95 128.254 415.089 128.054Z" fill="#6C863D" stroke="#F5F3F1"/>
</g>
<defs>
<clipPath id="clip0_2327_2711">
<rect width="457.564" height="169.367" fill="white" transform="translate(0.710938 0.356934)"/>
</clipPath>
</defs>
</svg>
