<svg width="338" height="170" viewBox="0 0 338 170" fill="none" xmlns="http://www.w3.org/2000/svg">
<g clip-path="url(#clip0_1524_439)">
<path opacity="0.973" fill-rule="evenodd" clip-rule="evenodd" d="M21.7892 15.0488C22.5582 15.4675 23.2664 15.9905 23.9135 16.6177C26.9066 19.9247 29.3036 23.4982 31.1038 27.3381C32.4654 30.9579 31.7025 34.27 28.816 37.2741C26.8488 39.2401 24.6156 40.9831 22.116 42.5036C17.876 40.2003 14.7712 37.1496 12.8014 33.352C12.0579 30.6577 12.3848 28.0429 13.7818 25.5078C15.8805 21.7085 18.5497 18.2222 21.7892 15.0488Z" fill="#B13C26" stroke="#F5F3F1"/>
<path opacity="0.972" fill-rule="evenodd" clip-rule="evenodd" d="M0.546696 35.7046C10.5598 37.5668 17.6956 42.2733 21.954 49.8242C26.3518 42.6012 33.3787 37.8947 43.0345 35.7046C44.1964 40.3337 43.3793 44.7788 40.5833 49.0398C39.8878 49.8582 39.0707 50.5989 38.1321 51.2623C35.5524 52.5995 32.8289 53.7324 29.9613 54.6614C26.5332 56.4912 24.1363 58.9752 22.7711 62.1135C21.6533 60.1989 20.2371 58.412 18.5223 56.7532C17.5418 56.1432 16.5613 55.5329 15.5808 54.9229C13.1775 54.1354 10.7808 53.3509 8.3906 52.5697C4.11204 50.5367 1.66082 47.5297 1.03694 43.5488C0.588563 40.9069 0.425148 38.2921 0.546696 35.7046Z" fill="#B13C26" stroke="#F5F3F1"/>
<path opacity="0.971" fill-rule="evenodd" clip-rule="evenodd" d="M0.547348 53.7485C10.5814 55.6306 17.7172 60.3372 21.9547 67.8681C26.4244 60.4125 33.6692 55.7059 43.6888 53.7485C43.8875 57.3875 43.3973 60.961 42.2181 64.469C41.267 66.4512 39.7963 68.1508 37.8059 69.5677C35.5066 70.6753 33.1097 71.6339 30.6156 72.4439C26.7417 74.2826 24.1271 76.941 22.7717 80.4189C21.2046 76.9392 18.3721 74.2808 14.2742 72.4439C6.8697 71.1397 2.4575 67.5227 1.03759 61.5928C0.580292 58.9574 0.416878 56.3426 0.547348 53.7485Z" fill="#B13C26" stroke="#F5F3F1"/>
<path opacity="0.972" fill-rule="evenodd" clip-rule="evenodd" d="M0.545579 71.7891C10.5152 73.7731 17.7054 78.4797 22.1163 85.9086C26.4723 78.5487 33.5537 73.8422 43.3602 71.7891C44.0962 76.3424 43.2792 80.7001 40.909 84.8628C39.8857 85.9434 38.7418 86.9457 37.4773 87.8697C34.8741 88.9138 32.2595 89.9597 29.6334 91.0074C26.2719 92.8552 23.9841 95.3392 22.77 98.4594C20.4006 93.4723 15.934 90.3783 9.36997 89.1771C4.61261 87.0986 1.83456 83.9175 1.03582 79.6333C0.703797 77.2382 0.431418 74.8415 0.21875 72.4427C0.298235 72.2069 0.4072 71.9891 0.545579 71.7891Z" fill="#B13C26" stroke="#F5F3F1"/>
<path opacity="0.971" fill-rule="evenodd" clip-rule="evenodd" d="M0.545579 89.8301C10.5641 91.8957 17.6999 96.6893 21.9529 104.211C26.2389 96.7314 33.3749 91.9376 43.3602 89.8301C44.2512 94.7458 43.2161 99.365 40.2553 103.688C37.2832 106.165 33.7426 107.951 29.6334 109.048C26.3988 110.981 24.111 113.465 22.77 116.5C21.343 114.008 19.382 111.785 16.887 109.833C14.272 108.671 11.5484 107.712 8.71631 106.957C4.34003 104.845 1.77985 101.751 1.03582 97.6743C0.703797 95.2792 0.431418 92.8825 0.21875 90.4838C0.298235 90.2479 0.4072 90.0301 0.545579 89.8301Z" fill="#B13C26" stroke="#F5F3F1"/>
<path opacity="0.971" fill-rule="evenodd" clip-rule="evenodd" d="M0.545579 109.705C10.5641 111.77 17.6999 116.564 21.9529 124.086C26.2389 116.606 33.3749 111.812 43.3602 109.705C44.2512 114.62 43.2161 119.239 40.2553 123.563C37.2832 126.039 33.7426 127.826 29.6334 128.923C26.3988 130.856 24.111 133.34 22.77 136.375C21.343 133.882 19.382 131.66 16.887 129.707C14.272 128.545 11.5484 127.587 8.71631 126.831C4.34003 124.72 1.77985 121.626 1.03582 117.549C0.703797 115.154 0.431418 112.757 0.21875 110.358C0.298235 110.122 0.4072 109.905 0.545579 109.705Z" fill="#B13C26" stroke="#F5F3F1"/>
<path opacity="0.971" fill-rule="evenodd" clip-rule="evenodd" d="M0.545579 127.746C10.5641 129.811 17.6999 134.605 21.9529 142.127C26.2389 134.647 33.3749 129.853 43.3602 127.746C44.2512 132.661 43.2161 137.281 40.2553 141.604C37.2832 144.08 33.7426 145.867 29.6334 146.964C26.3988 148.897 24.111 151.381 22.77 154.416C21.343 151.923 19.382 149.701 16.887 147.748C14.272 146.586 11.5484 145.628 8.71631 144.872C4.34003 142.761 1.77985 139.667 1.03582 135.59C0.703797 133.195 0.431418 130.798 0.21875 128.399C0.298235 128.163 0.4072 127.946 0.545579 127.746Z" fill="#B13C26" stroke="#F5F3F1"/>
<path opacity="0.973" fill-rule="evenodd" clip-rule="evenodd" d="M95.3009 33.0898C96.0699 33.5085 96.7781 34.0315 97.4253 34.6587C100.418 37.9657 102.815 41.5392 104.616 45.3791C105.977 48.999 105.214 52.311 102.328 55.3151C100.361 57.2811 98.1273 59.0241 95.6277 60.5446C91.3877 58.2413 88.2829 55.1907 86.3131 51.393C85.5697 48.6987 85.8965 46.0839 87.2936 43.5488C89.3923 39.7495 92.0614 36.2632 95.3009 33.0898Z" fill="#B13C26" stroke="#F5F3F1"/>
<path opacity="0.972" fill-rule="evenodd" clip-rule="evenodd" d="M74.0584 53.7456C84.0715 55.6078 91.2073 60.3144 95.4657 67.8652C99.8635 60.6422 106.89 55.9357 116.546 53.7456C117.708 58.3747 116.891 62.8198 114.095 67.0808C113.4 67.8992 112.582 68.6399 111.644 69.3033C109.064 70.6405 106.341 71.7734 103.473 72.7025C100.045 74.5323 97.648 77.0163 96.2828 80.1545C95.1651 78.24 93.7489 76.453 92.034 74.7943C91.0535 74.1842 90.073 73.574 89.0926 72.9639C86.6892 72.1764 84.2925 71.392 81.9023 70.6107C77.6238 68.5777 75.1725 65.5708 74.5487 61.5898C74.1003 58.9479 73.9369 56.3332 74.0584 53.7456Z" fill="#B13C26" stroke="#F5F3F1"/>
<path opacity="0.971" fill-rule="evenodd" clip-rule="evenodd" d="M74.0591 71.7896C84.0931 73.6716 91.2289 78.3782 95.4664 85.9091C99.9361 78.4535 107.181 73.7469 117.201 71.7896C117.399 75.4285 116.909 79.002 115.73 82.51C114.779 84.4922 113.308 86.1918 111.318 87.6087C109.018 88.7163 106.621 89.6749 104.127 90.4849C100.253 92.3236 97.6388 94.982 96.2835 98.4599C94.7163 94.9802 91.8838 92.3218 87.7859 90.4849C80.3814 89.1807 75.9692 85.5637 74.5493 79.6338C74.092 76.9984 73.9286 74.3836 74.0591 71.7896Z" fill="#B13C26" stroke="#F5F3F1"/>
<path opacity="0.972" fill-rule="evenodd" clip-rule="evenodd" d="M74.0573 89.8301C84.0269 91.8141 91.2171 96.5207 95.628 103.95C99.984 96.5897 107.065 91.8832 116.872 89.8301C117.608 94.3834 116.791 98.7411 114.421 102.904C113.397 103.984 112.254 104.987 110.989 105.911C108.386 106.955 105.771 108.001 103.145 109.048C99.7837 110.896 97.4959 113.38 96.2817 116.5C93.9123 111.513 89.4457 108.419 82.8817 107.218C78.1243 105.14 75.3463 101.959 74.5475 97.6743C74.2155 95.2792 73.9431 92.8825 73.7305 90.4838C73.81 90.2479 73.9189 90.0301 74.0573 89.8301Z" fill="#B13C26" stroke="#F5F3F1"/>
<path opacity="0.971" fill-rule="evenodd" clip-rule="evenodd" d="M74.0573 107.871C84.0759 109.937 91.2116 114.73 95.4646 122.252C99.7507 114.772 106.887 109.979 116.872 107.871C117.763 112.787 116.728 117.406 113.767 121.729C110.795 124.206 107.254 125.992 103.145 127.089C99.9105 129.022 97.6227 131.506 96.2817 134.541C94.8547 132.049 92.8937 129.826 90.3988 127.874C87.7837 126.712 85.0601 125.753 82.228 124.998C77.8518 122.886 75.2916 119.792 74.5475 115.715C74.2155 113.32 73.9431 110.924 73.7305 108.525C73.81 108.289 73.9189 108.071 74.0573 107.871Z" fill="#B13C26" stroke="#F5F3F1"/>
<path opacity="0.971" fill-rule="evenodd" clip-rule="evenodd" d="M74.0573 127.746C84.0759 129.811 91.2116 134.605 95.4646 142.127C99.7507 134.647 106.887 129.853 116.872 127.746C117.763 132.661 116.728 137.281 113.767 141.604C110.795 144.08 107.254 145.867 103.145 146.964C99.9105 148.897 97.6227 151.381 96.2817 154.416C94.8547 151.923 92.8937 149.701 90.3988 147.748C87.7837 146.586 85.0601 145.628 82.228 144.872C77.8518 142.761 75.2916 139.667 74.5475 135.59C74.2155 133.195 73.9431 130.798 73.7305 128.399C73.81 128.163 73.9189 127.946 74.0573 127.746Z" fill="#B13C26" stroke="#F5F3F1"/>
<path opacity="0.973" fill-rule="evenodd" clip-rule="evenodd" d="M169.187 52.9644C168.418 53.3831 167.71 53.906 167.063 54.5332C164.07 57.8402 161.673 61.4137 159.873 65.2536C158.511 68.8735 159.274 72.1855 162.161 75.1896C164.128 77.1557 166.361 78.8986 168.861 80.4191C173.101 78.1158 176.205 75.0652 178.175 71.2675C178.919 68.5732 178.592 65.9585 177.195 63.4233C175.096 59.624 172.427 56.1377 169.187 52.9644Z" fill="#B13C26" stroke="#F5F3F1"/>
<path opacity="0.972" fill-rule="evenodd" clip-rule="evenodd" d="M190.43 73.6201C180.417 75.4823 173.281 80.1889 169.023 87.7397C164.625 80.5168 157.598 75.8102 147.942 73.6201C146.78 78.2493 147.597 82.6943 150.393 86.9553C151.089 87.7737 151.906 88.5145 152.844 89.1778C155.424 90.515 158.148 91.648 161.015 92.577C164.443 94.4068 166.84 96.8908 168.205 100.029C169.323 98.1145 170.739 96.3276 172.454 94.6688C173.435 94.0587 174.415 93.4485 175.396 92.8384C177.799 92.0509 180.196 91.2665 182.586 90.4852C186.865 88.4522 189.316 85.4453 189.94 81.4643C190.388 78.8224 190.551 76.2077 190.43 73.6201Z" fill="#B13C26" stroke="#F5F3F1"/>
<path opacity="0.971" fill-rule="evenodd" clip-rule="evenodd" d="M190.429 91.6641C180.395 93.5462 173.259 98.2527 169.022 105.784C164.552 98.328 157.307 93.6215 147.288 91.6641C147.089 95.303 147.579 98.8766 148.758 102.384C149.71 104.367 151.18 106.066 153.171 107.483C155.47 108.591 157.867 109.549 160.361 110.359C164.235 112.198 166.849 114.857 168.205 118.334C169.772 114.855 172.605 112.196 176.702 110.359C184.107 109.055 188.519 105.438 189.939 99.5083C190.396 96.8729 190.56 94.2581 190.429 91.6641Z" fill="#B13C26" stroke="#F5F3F1"/>
<path opacity="0.972" fill-rule="evenodd" clip-rule="evenodd" d="M190.431 109.705C180.461 111.689 173.271 116.395 168.86 123.824C164.504 116.464 157.423 111.758 147.616 109.705C146.88 114.258 147.697 118.616 150.068 122.778C151.091 123.859 152.235 124.861 153.499 125.785C156.102 126.829 158.717 127.875 161.343 128.923C164.705 130.771 166.992 133.255 168.207 136.375C170.576 131.388 175.043 128.294 181.607 127.093C186.364 125.014 189.142 121.833 189.941 117.549C190.273 115.154 190.545 112.757 190.758 110.358C190.678 110.122 190.569 109.905 190.431 109.705Z" fill="#B13C26" stroke="#F5F3F1"/>
<path opacity="0.971" fill-rule="evenodd" clip-rule="evenodd" d="M190.431 127.746C180.412 129.811 173.277 134.605 169.024 142.127C164.738 134.647 157.602 129.853 147.616 127.746C146.725 132.661 147.76 137.281 150.721 141.604C153.693 144.08 157.234 145.867 161.343 146.964C164.578 148.897 166.866 151.381 168.207 154.416C169.634 151.923 171.595 149.701 174.09 147.748C176.705 146.586 179.428 145.628 182.26 144.872C186.637 142.761 189.197 139.667 189.941 135.59C190.273 133.195 190.545 130.798 190.758 128.399C190.678 128.163 190.569 127.946 190.431 127.746Z" fill="#B13C26" stroke="#F5F3F1"/>
<path opacity="0.973" fill-rule="evenodd" clip-rule="evenodd" d="M242.328 33.0898C243.097 33.5085 243.805 34.0315 244.453 34.6587C247.446 37.9657 249.843 41.5392 251.643 45.3791C253.004 48.999 252.242 52.311 249.355 55.3151C247.388 57.2811 245.155 59.0241 242.655 60.5446C238.415 58.2413 235.31 55.1907 233.34 51.393C232.597 48.6987 232.924 46.0839 234.321 43.5488C236.42 39.7495 239.089 36.2632 242.328 33.0898Z" fill="#B13C26" stroke="#F5F3F1"/>
<path opacity="0.972" fill-rule="evenodd" clip-rule="evenodd" d="M221.086 53.7456C231.099 55.6078 238.235 60.3144 242.493 67.8652C246.891 60.6422 253.918 55.9357 263.574 53.7456C264.735 58.3747 263.918 62.8198 261.122 67.0808C260.427 67.8992 259.61 68.6399 258.671 69.3033C256.091 70.6405 253.368 71.7734 250.5 72.7025C247.072 74.5323 244.675 77.0163 243.31 80.1545C242.192 78.24 240.776 76.453 239.061 74.7943C238.081 74.1842 237.1 73.574 236.12 72.9639C233.717 72.1764 231.32 71.392 228.93 70.6107C224.651 68.5777 222.2 65.5708 221.576 61.5898C221.128 58.9479 220.964 56.3332 221.086 53.7456Z" fill="#B13C26" stroke="#F5F3F1"/>
<path opacity="0.971" fill-rule="evenodd" clip-rule="evenodd" d="M221.086 71.7896C231.12 73.6716 238.256 78.3782 242.494 85.9091C246.963 78.4535 254.208 73.7469 264.228 71.7896C264.427 75.4285 263.936 79.002 262.757 82.51C261.806 84.4922 260.335 86.1918 258.345 87.6087C256.046 88.7163 253.649 89.6749 251.155 90.4849C247.281 92.3236 244.666 94.982 243.311 98.4599C241.744 94.9802 238.911 92.3218 234.813 90.4849C227.409 89.1807 222.997 85.5637 221.577 79.6338C221.119 76.9984 220.956 74.3836 221.086 71.7896Z" fill="#B13C26" stroke="#F5F3F1"/>
<path opacity="0.972" fill-rule="evenodd" clip-rule="evenodd" d="M221.085 89.8301C231.054 91.8141 238.244 96.5207 242.655 103.95C247.011 96.5897 254.093 91.8832 263.899 89.8301C264.635 94.3834 263.818 98.7411 261.448 102.904C260.425 103.984 259.281 104.987 258.016 105.911C255.413 106.955 252.799 108.001 250.172 109.048C246.811 110.896 244.523 113.38 243.309 116.5C240.94 111.513 236.473 108.419 229.909 107.218C225.152 105.14 222.374 101.959 221.575 97.6743C221.243 95.2792 220.97 92.8825 220.758 90.4838C220.837 90.2479 220.946 90.0301 221.085 89.8301Z" fill="#B13C26" stroke="#F5F3F1"/>
<path opacity="0.971" fill-rule="evenodd" clip-rule="evenodd" d="M221.085 107.871C231.103 109.937 238.239 114.73 242.492 122.252C246.778 114.772 253.914 109.979 263.899 107.871C264.79 112.787 263.755 117.406 260.794 121.729C257.822 124.206 254.282 125.992 250.172 127.089C246.938 129.022 244.65 131.506 243.309 134.541C241.882 132.049 239.921 129.826 237.426 127.874C234.811 126.712 232.087 125.753 229.255 124.998C224.879 122.886 222.319 119.792 221.575 115.715C221.243 113.32 220.97 110.924 220.758 108.525C220.837 108.289 220.946 108.071 221.085 107.871Z" fill="#B13C26" stroke="#F5F3F1"/>
<path opacity="0.971" fill-rule="evenodd" clip-rule="evenodd" d="M221.085 127.746C231.103 129.811 238.239 134.605 242.492 142.127C246.778 134.647 253.914 129.853 263.899 127.746C264.79 132.661 263.755 137.281 260.794 141.604C257.822 144.08 254.282 145.867 250.172 146.964C246.938 148.897 244.65 151.381 243.309 154.416C241.882 151.923 239.921 149.701 237.426 147.748C234.811 146.586 232.087 145.628 229.255 144.872C224.879 142.761 222.319 139.667 221.575 135.59C221.243 133.195 220.97 130.798 220.758 128.399C220.837 128.163 220.946 127.946 221.085 127.746Z" fill="#B13C26" stroke="#F5F3F1"/>
<path opacity="0.973" fill-rule="evenodd" clip-rule="evenodd" d="M315.84 15.0488C316.609 15.4675 317.317 15.9905 317.964 16.6177C320.957 19.9247 323.354 23.4982 325.155 27.3381C326.516 30.9579 325.753 34.27 322.867 37.2741C320.9 39.2401 318.666 40.9831 316.167 42.5036C311.927 40.2003 308.822 37.1496 306.852 33.352C306.109 30.6577 306.436 28.0429 307.833 25.5078C309.931 21.7085 312.6 18.2222 315.84 15.0488Z" fill="#B13C26" stroke="#F5F3F1"/>
<path opacity="0.972" fill-rule="evenodd" clip-rule="evenodd" d="M294.597 35.7046C304.611 37.5668 311.746 42.2733 316.005 49.8242C320.403 42.6012 327.429 37.8947 337.085 35.7046C338.247 40.3337 337.43 44.7788 334.634 49.0398C333.939 49.8582 333.121 50.5989 332.183 51.2623C329.603 52.5995 326.88 53.7324 324.012 54.6614C320.584 56.4912 318.187 58.9752 316.822 62.1135C315.704 60.1989 314.288 58.412 312.573 56.7532C311.593 56.1432 310.612 55.5329 309.632 54.9229C307.228 54.1354 304.832 53.3509 302.441 52.5697C298.163 50.5367 295.712 47.5297 295.088 43.5488C294.639 40.9069 294.476 38.2921 294.597 35.7046Z" fill="#B13C26" stroke="#F5F3F1"/>
<path opacity="0.971" fill-rule="evenodd" clip-rule="evenodd" d="M294.598 53.7485C304.632 55.6306 311.768 60.3372 316.005 67.8681C320.475 60.4125 327.72 55.7059 337.74 53.7485C337.938 57.3875 337.448 60.961 336.269 64.469C335.318 66.4512 333.847 68.1508 331.857 69.5677C329.557 70.6753 327.16 71.6339 324.666 72.4439C320.793 74.2826 318.178 76.941 316.823 80.4189C315.255 76.9392 312.423 74.2808 308.325 72.4439C300.92 71.1397 296.508 67.5227 295.088 61.5928C294.631 58.9574 294.468 56.3426 294.598 53.7485Z" fill="#B13C26" stroke="#F5F3F1"/>
<path opacity="0.972" fill-rule="evenodd" clip-rule="evenodd" d="M294.596 71.7891C304.566 73.7731 311.756 78.4797 316.167 85.9086C320.523 78.5487 327.604 73.8422 337.411 71.7891C338.147 76.3424 337.33 80.7001 334.96 84.8628C333.936 85.9434 332.793 86.9457 331.528 87.8697C328.925 88.9138 326.31 89.9597 323.684 91.0074C320.323 92.8552 318.035 95.3392 316.821 98.4594C314.451 93.4723 309.985 90.3783 303.421 89.1771C298.663 87.0986 295.885 83.9175 295.087 79.6333C294.755 77.2382 294.482 74.8415 294.27 72.4427C294.349 72.2069 294.458 71.9891 294.596 71.7891Z" fill="#B13C26" stroke="#F5F3F1"/>
<path opacity="0.971" fill-rule="evenodd" clip-rule="evenodd" d="M294.596 89.8301C304.615 91.8957 311.751 96.6893 316.004 104.211C320.29 96.7314 327.426 91.9376 337.411 89.8301C338.302 94.7458 337.267 99.365 334.306 103.688C331.334 106.165 327.793 107.951 323.684 109.048C320.45 110.981 318.162 113.465 316.821 116.5C315.394 114.008 313.433 111.785 310.938 109.833C308.323 108.671 305.599 107.712 302.767 106.957C298.391 104.845 295.831 101.751 295.087 97.6743C294.755 95.2792 294.482 92.8825 294.27 90.4838C294.349 90.2479 294.458 90.0301 294.596 89.8301Z" fill="#B13C26" stroke="#F5F3F1"/>
<path opacity="0.971" fill-rule="evenodd" clip-rule="evenodd" d="M294.596 109.705C304.615 111.77 311.751 116.564 316.004 124.086C320.29 116.606 327.426 111.812 337.411 109.705C338.302 114.62 337.267 119.239 334.306 123.563C331.334 126.039 327.793 127.826 323.684 128.923C320.45 130.856 318.162 133.34 316.821 136.375C315.394 133.882 313.433 131.66 310.938 129.707C308.323 128.545 305.599 127.587 302.767 126.831C298.391 124.72 295.831 121.626 295.087 117.549C294.755 115.154 294.482 112.757 294.27 110.358C294.349 110.122 294.458 109.905 294.596 109.705Z" fill="#B13C26" stroke="#F5F3F1"/>
<path opacity="0.971" fill-rule="evenodd" clip-rule="evenodd" d="M294.596 127.746C304.615 129.811 311.751 134.605 316.004 142.127C320.29 134.647 327.426 129.853 337.411 127.746C338.302 132.661 337.267 137.281 334.306 141.604C331.334 144.08 327.793 145.867 323.684 146.964C320.45 148.897 318.162 151.381 316.821 154.416C315.394 151.923 313.433 149.701 310.938 147.748C308.323 146.586 305.599 145.628 302.767 144.872C298.391 142.761 295.831 139.667 295.087 135.59C294.755 133.195 294.482 130.798 294.27 128.399C294.349 128.163 294.458 127.946 294.596 127.746Z" fill="#B13C26" stroke="#F5F3F1"/>
</g>
<defs>
<clipPath id="clip0_1524_439">
<rect width="337.564" height="169.367" fill="white" transform="translate(0.21875 0.0488281)"/>
</clipPath>
</defs>
</svg>
