<svg width="339" height="170" viewBox="0 0 339 170" fill="none" xmlns="http://www.w3.org/2000/svg">
<g clip-path="url(#clip0_2327_2058)">
<path opacity="0.973" fill-rule="evenodd" clip-rule="evenodd" d="M22.2813 15.46C23.0504 15.8787 23.7586 16.4016 24.4057 17.0288C27.3988 20.3358 29.7958 23.9093 31.596 27.7492C32.9575 31.3691 32.1947 34.6811 29.3082 37.6852C27.341 39.6513 25.1078 41.3942 22.6082 42.9147C18.3682 40.6114 15.2633 37.5608 13.2935 33.7631C12.5501 31.0688 12.877 28.4541 14.274 25.9189C16.3727 22.1196 19.0418 18.6333 22.2813 15.46Z" fill="#6C863D" stroke="#F5F3F1"/>
<path opacity="0.972" fill-rule="evenodd" clip-rule="evenodd" d="M1.03888 36.1157C11.052 37.9779 18.1878 42.6845 22.4462 50.2353C26.844 43.0124 33.8708 38.3058 43.5267 36.1157C44.6886 40.7449 43.8715 45.1899 41.0755 49.4509C40.38 50.2693 39.5629 51.0101 38.6243 51.6734C36.0446 53.0106 33.3211 54.1436 30.4535 55.0726C27.0254 56.9024 24.6284 59.3864 23.2633 62.5246C22.1455 60.6101 20.7293 58.8232 19.0145 57.1644C18.034 56.5543 17.0535 55.9441 16.073 55.3341C13.6697 54.5465 11.273 53.7621 8.88279 52.9808C4.60423 50.9478 2.15301 47.9409 1.52913 43.9599C1.08075 41.318 0.917336 38.7033 1.03888 36.1157Z" fill="#6C863D" stroke="#F5F3F1"/>
<path opacity="0.971" fill-rule="evenodd" clip-rule="evenodd" d="M1.03954 54.1597C11.0736 56.0418 18.2094 60.7483 22.4469 68.2793C26.9166 60.8236 34.1614 56.1171 44.181 54.1597C44.3797 57.7986 43.8895 61.3722 42.7103 64.8801C41.7592 66.8623 40.2885 68.5619 38.2981 69.9788C35.9988 71.0864 33.6019 72.045 31.1078 72.855C27.2339 74.6937 24.6193 77.3521 23.2639 80.83C21.6968 77.3503 18.8643 74.6919 14.7664 72.855C7.36189 71.5508 2.94969 67.9338 1.52978 62.0039C1.07248 59.3685 0.909065 56.7537 1.03954 54.1597Z" fill="#6C863D" stroke="#F5F3F1"/>
<path opacity="0.972" fill-rule="evenodd" clip-rule="evenodd" d="M1.03777 72.2002C11.0074 74.1843 18.1976 78.8908 22.6085 86.3198C26.9645 78.9598 34.0459 74.2533 43.8524 72.2002C44.5884 76.7535 43.7714 81.1112 41.4012 85.2739C40.3779 86.3546 39.234 87.3568 37.9695 88.2808C35.3663 89.3249 32.7516 90.3708 30.1256 91.4185C26.7641 93.2664 24.4763 95.7504 23.2622 98.8705C20.8928 93.8834 16.4262 90.7894 9.86216 89.5882C5.1048 87.5097 2.32675 84.3287 1.52801 80.0444C1.19598 77.6493 0.923605 75.2526 0.710938 72.8539C0.790422 72.618 0.899387 72.4002 1.03777 72.2002Z" fill="#6C863D" stroke="#F5F3F1"/>
<path opacity="0.971" fill-rule="evenodd" clip-rule="evenodd" d="M1.03777 90.2412C11.0563 92.3069 18.1921 97.1005 22.4451 104.622C26.7311 97.1426 33.8671 92.3487 43.8524 90.2412C44.7433 95.1569 43.7083 99.7761 40.7475 104.099C37.7753 106.576 34.2348 108.362 30.1256 109.46C26.8909 111.393 24.6031 113.877 23.2622 116.912C21.8352 114.419 19.8742 112.196 17.3792 110.244C14.7641 109.082 12.0406 108.123 9.2085 107.368C4.83222 105.257 2.27204 102.163 1.52801 98.0854C1.19598 95.6903 0.923605 93.2937 0.710938 90.8949C0.790422 90.659 0.899387 90.4412 1.03777 90.2412Z" fill="#6C863D" stroke="#F5F3F1"/>
<path opacity="0.971" fill-rule="evenodd" clip-rule="evenodd" d="M1.03777 110.116C11.0563 112.181 18.1921 116.975 22.4451 124.497C26.7311 117.017 33.8671 112.223 43.8524 110.116C44.7433 115.031 43.7083 119.651 40.7475 123.974C37.7753 126.45 34.2348 128.237 30.1256 129.334C26.8909 131.267 24.6031 133.751 23.2622 136.786C21.8352 134.293 19.8742 132.071 17.3792 130.118C14.7641 128.956 12.0406 127.998 9.2085 127.242C4.83222 125.131 2.27204 122.037 1.52801 117.96C1.19598 115.565 0.923605 113.168 0.710938 110.769C0.790422 110.534 0.899387 110.316 1.03777 110.116Z" fill="#6C863D" stroke="#F5F3F1"/>
<path opacity="0.971" fill-rule="evenodd" clip-rule="evenodd" d="M1.03777 128.157C11.0563 130.222 18.1921 135.016 22.4451 142.538C26.7311 135.058 33.8671 130.264 43.8524 128.157C44.7433 133.072 43.7083 137.692 40.7475 142.015C37.7753 144.491 34.2348 146.278 30.1256 147.375C26.8909 149.308 24.6031 151.792 23.2622 154.827C21.8352 152.334 19.8742 150.112 17.3792 148.159C14.7641 146.997 12.0406 146.039 9.2085 145.283C4.83222 143.172 2.27204 140.078 1.52801 136.001C1.19598 133.606 0.923605 131.209 0.710938 128.81C0.790422 128.575 0.899387 128.357 1.03777 128.157Z" fill="#6C863D" stroke="#F5F3F1"/>
<path opacity="0.973" fill-rule="evenodd" clip-rule="evenodd" d="M95.7931 33.501C96.5621 33.9197 97.2703 34.4426 97.9175 35.0698C100.911 38.3769 103.308 41.9503 105.108 45.7902C106.469 49.4101 105.706 52.7221 102.82 55.7263C100.853 57.6923 98.6195 59.4353 96.1199 60.9557C91.8799 58.6524 88.7751 55.6018 86.8053 51.8041C86.0619 49.1098 86.3887 46.4951 87.7857 43.9599C89.8844 40.1606 92.5536 36.6743 95.7931 33.501Z" fill="#6C863D" stroke="#F5F3F1"/>
<path opacity="0.972" fill-rule="evenodd" clip-rule="evenodd" d="M74.5506 54.1567C84.5637 56.019 91.6995 60.7255 95.9579 68.2763C100.356 61.0534 107.383 56.3468 117.038 54.1567C118.2 58.7859 117.383 63.2309 114.587 67.4919C113.892 68.3103 113.075 69.0511 112.136 69.7144C109.556 71.0516 106.833 72.1846 103.965 73.1136C100.537 74.9434 98.1402 77.4274 96.775 80.5656C95.6572 78.6511 94.2411 76.8642 92.5262 75.2054C91.5457 74.5954 90.5652 73.9851 89.5847 73.3751C87.1814 72.5875 84.7847 71.8031 82.3945 71.0218C78.116 68.9888 75.6647 65.9819 75.0408 62.001C74.5925 59.359 74.4291 56.7443 74.5506 54.1567Z" fill="#6C863D" stroke="#F5F3F1"/>
<path opacity="0.971" fill-rule="evenodd" clip-rule="evenodd" d="M74.5513 72.2007C84.5853 74.0828 91.7211 78.7893 95.9586 86.3203C100.428 78.8646 107.673 74.1581 117.693 72.2007C117.891 75.8396 117.401 79.4132 116.222 82.9211C115.271 84.9033 113.8 86.6029 111.81 88.0199C109.511 89.1275 107.114 90.086 104.62 90.8961C100.746 92.7347 98.131 95.3932 96.7756 98.871C95.2085 95.3913 92.376 92.7329 88.2781 90.8961C80.8736 89.5918 76.4614 85.9749 75.0415 80.0449C74.5842 77.4095 74.4208 74.7948 74.5513 72.2007Z" fill="#6C863D" stroke="#F5F3F1"/>
<path opacity="0.972" fill-rule="evenodd" clip-rule="evenodd" d="M74.5495 90.2412C84.5191 92.2253 91.7093 96.9318 96.1202 104.361C100.476 97.0008 107.558 92.2943 117.364 90.2412C118.1 94.7945 117.283 99.1522 114.913 103.315C113.89 104.396 112.746 105.398 111.481 106.322C108.878 107.366 106.263 108.412 103.637 109.46C100.276 111.307 97.9881 113.791 96.7739 116.912C94.4045 111.924 89.9379 108.83 83.3739 107.629C78.6165 105.551 75.8385 102.37 75.0397 98.0854C74.7077 95.6903 74.4353 93.2937 74.2227 90.8949C74.3021 90.659 74.4111 90.4412 74.5495 90.2412Z" fill="#6C863D" stroke="#F5F3F1"/>
<path opacity="0.971" fill-rule="evenodd" clip-rule="evenodd" d="M74.5495 108.282C84.568 110.348 91.7038 115.141 95.9568 122.663C100.243 115.184 107.379 110.39 117.364 108.282C118.255 113.198 117.22 117.817 114.259 122.14C111.287 124.617 107.747 126.403 103.637 127.501C100.403 129.434 98.1149 131.918 96.7739 134.953C95.3469 132.46 93.3859 130.237 90.891 128.285C88.2759 127.123 85.5523 126.164 82.7202 125.409C78.3439 123.298 75.7838 120.204 75.0397 116.126C74.7077 113.731 74.4353 111.335 74.2227 108.936C74.3021 108.7 74.4111 108.482 74.5495 108.282Z" fill="#6C863D" stroke="#F5F3F1"/>
<path opacity="0.971" fill-rule="evenodd" clip-rule="evenodd" d="M74.5495 128.157C84.568 130.222 91.7038 135.016 95.9568 142.538C100.243 135.058 107.379 130.264 117.364 128.157C118.255 133.072 117.22 137.692 114.259 142.015C111.287 144.491 107.747 146.278 103.637 147.375C100.403 149.308 98.1149 151.792 96.7739 154.827C95.3469 152.334 93.3859 150.112 90.891 148.159C88.2759 146.997 85.5523 146.039 82.7202 145.283C78.3439 143.172 75.7838 140.078 75.0397 136.001C74.7077 133.606 74.4353 131.209 74.2227 128.81C74.3021 128.575 74.4111 128.357 74.5495 128.157Z" fill="#6C863D" stroke="#F5F3F1"/>
<path opacity="0.973" fill-rule="evenodd" clip-rule="evenodd" d="M169.68 53.3755C168.911 53.7942 168.202 54.3171 167.555 54.9443C164.562 58.2514 162.165 61.8248 160.365 65.6648C159.003 69.2846 159.766 72.5966 162.653 75.6008C164.62 77.5668 166.853 79.3098 169.353 80.8302C173.593 78.5269 176.698 75.4763 178.667 71.6787C179.411 68.9843 179.084 66.3696 177.687 63.8344C175.588 60.0351 172.919 56.5488 169.68 53.3755Z" fill="#6C863D" stroke="#F5F3F1"/>
<path opacity="0.972" fill-rule="evenodd" clip-rule="evenodd" d="M190.922 74.0313C180.909 75.8935 173.773 80.6 169.515 88.1508C165.117 80.9279 158.09 76.2214 148.434 74.0313C147.272 78.6604 148.089 83.1054 150.885 87.3664C151.581 88.1848 152.398 88.9256 153.337 89.5889C155.916 90.9261 158.64 92.0591 161.507 92.9881C164.936 94.8179 167.332 97.3019 168.698 100.44C169.815 98.5256 171.232 96.7387 172.946 95.0799C173.927 94.4699 174.907 93.8596 175.888 93.2496C178.291 92.462 180.688 91.6776 183.078 90.8963C187.357 88.8634 189.808 85.8564 190.432 81.8755C190.88 79.2335 191.044 76.6188 190.922 74.0313Z" fill="#6C863D" stroke="#F5F3F1"/>
<path opacity="0.971" fill-rule="evenodd" clip-rule="evenodd" d="M190.921 92.0752C180.887 93.9573 173.752 98.6638 169.514 106.195C165.044 98.7391 157.8 94.0326 147.78 92.0752C147.581 95.7141 148.071 99.2877 149.251 102.796C150.202 104.778 151.672 106.477 153.663 107.894C155.962 109.002 158.359 109.961 160.853 110.771C164.727 112.609 167.342 115.268 168.697 118.746C170.264 115.266 173.097 112.607 177.195 110.771C184.599 109.466 189.011 105.849 190.431 99.9194C190.888 97.284 191.052 94.6693 190.921 92.0752Z" fill="#6C863D" stroke="#F5F3F1"/>
<path opacity="0.972" fill-rule="evenodd" clip-rule="evenodd" d="M190.923 110.116C180.954 112.1 173.763 116.806 169.352 124.235C164.996 116.875 157.915 112.169 148.109 110.116C147.373 114.669 148.19 119.027 150.56 123.189C151.583 124.27 152.727 125.272 153.991 126.196C156.595 127.24 159.209 128.286 161.835 129.334C165.197 131.182 167.485 133.666 168.699 136.786C171.068 131.799 175.535 128.705 182.099 127.504C186.856 125.425 189.634 122.244 190.433 117.96C190.765 115.565 191.037 113.168 191.25 110.769C191.171 110.534 191.062 110.316 190.923 110.116Z" fill="#6C863D" stroke="#F5F3F1"/>
<path opacity="0.971" fill-rule="evenodd" clip-rule="evenodd" d="M190.923 128.157C180.905 130.222 173.769 135.016 169.516 142.538C165.23 135.058 158.094 130.264 148.109 128.157C147.218 133.072 148.253 137.692 151.213 142.015C154.186 144.491 157.726 146.278 161.835 147.375C165.07 149.308 167.358 151.792 168.699 154.827C170.126 152.334 172.087 150.112 174.582 148.159C177.197 146.997 179.92 146.039 182.752 145.283C187.129 143.172 189.689 140.078 190.433 136.001C190.765 133.606 191.037 131.209 191.25 128.81C191.171 128.575 191.062 128.357 190.923 128.157Z" fill="#6C863D" stroke="#F5F3F1"/>
<path opacity="0.973" fill-rule="evenodd" clip-rule="evenodd" d="M242.82 33.501C243.589 33.9197 244.298 34.4426 244.945 35.0698C247.938 38.3769 250.335 41.9503 252.135 45.7902C253.497 49.4101 252.734 52.7221 249.847 55.7263C247.88 57.6923 245.647 59.4353 243.147 60.9557C238.907 58.6524 235.802 55.6018 233.833 51.8041C233.089 49.1098 233.416 46.4951 234.813 43.9599C236.912 40.1606 239.581 36.6743 242.82 33.501Z" fill="#6C863D" stroke="#F5F3F1"/>
<path opacity="0.972" fill-rule="evenodd" clip-rule="evenodd" d="M221.578 54.1567C231.591 56.019 238.727 60.7255 242.985 68.2763C247.383 61.0534 254.41 56.3468 264.066 54.1567C265.228 58.7859 264.411 63.2309 261.615 67.4919C260.919 68.3103 260.102 69.0511 259.163 69.7144C256.584 71.0516 253.86 72.1846 250.993 73.1136C247.564 74.9434 245.168 77.4274 243.802 80.5656C242.685 78.6511 241.268 76.8642 239.554 75.2054C238.573 74.5954 237.593 73.9851 236.612 73.3751C234.209 72.5875 231.812 71.8031 229.422 71.0218C225.143 68.9888 222.692 65.9819 222.068 62.001C221.62 59.359 221.456 56.7443 221.578 54.1567Z" fill="#6C863D" stroke="#F5F3F1"/>
<path opacity="0.971" fill-rule="evenodd" clip-rule="evenodd" d="M221.579 72.2007C231.613 74.0828 238.748 78.7893 242.986 86.3203C247.456 78.8646 254.7 74.1581 264.72 72.2007C264.919 75.8396 264.429 79.4132 263.249 82.9211C262.298 84.9033 260.828 86.6029 258.837 88.0199C256.538 89.1275 254.141 90.086 251.647 90.8961C247.773 92.7347 245.158 95.3932 243.803 98.871C242.236 95.3913 239.403 92.7329 235.305 90.8961C227.901 89.5918 223.489 85.9749 222.069 80.0449C221.612 77.4095 221.448 74.7948 221.579 72.2007Z" fill="#6C863D" stroke="#F5F3F1"/>
<path opacity="0.972" fill-rule="evenodd" clip-rule="evenodd" d="M221.577 90.2412C231.546 92.2253 238.737 96.9318 243.148 104.361C247.504 97.0008 254.585 92.2943 264.391 90.2412C265.127 94.7945 264.31 99.1522 261.94 103.315C260.917 104.396 259.773 105.398 258.509 106.322C255.905 107.366 253.291 108.412 250.665 109.46C247.303 111.307 245.015 113.791 243.801 116.912C241.432 111.924 236.965 108.83 230.401 107.629C225.644 105.551 222.866 102.37 222.067 98.0854C221.735 95.6903 221.463 93.2937 221.25 90.8949C221.329 90.659 221.438 90.4412 221.577 90.2412Z" fill="#6C863D" stroke="#F5F3F1"/>
<path opacity="0.971" fill-rule="evenodd" clip-rule="evenodd" d="M221.577 108.282C231.595 110.348 238.731 115.141 242.984 122.663C247.27 115.184 254.406 110.39 264.391 108.282C265.282 113.198 264.247 117.817 261.287 122.14C258.314 124.617 254.774 126.403 250.665 127.501C247.43 129.434 245.142 131.918 243.801 134.953C242.374 132.46 240.413 130.237 237.918 128.285C235.303 127.123 232.58 126.164 229.748 125.409C225.371 123.298 222.811 120.204 222.067 116.126C221.735 113.731 221.463 111.335 221.25 108.936C221.329 108.7 221.438 108.482 221.577 108.282Z" fill="#6C863D" stroke="#F5F3F1"/>
<path opacity="0.971" fill-rule="evenodd" clip-rule="evenodd" d="M221.577 128.157C231.595 130.222 238.731 135.016 242.984 142.538C247.27 135.058 254.406 130.264 264.391 128.157C265.282 133.072 264.247 137.692 261.287 142.015C258.314 144.491 254.774 146.278 250.665 147.375C247.43 149.308 245.142 151.792 243.801 154.827C242.374 152.334 240.413 150.112 237.918 148.159C235.303 146.997 232.58 146.039 229.748 145.283C225.371 143.172 222.811 140.078 222.067 136.001C221.735 133.606 221.463 131.209 221.25 128.81C221.329 128.575 221.438 128.357 221.577 128.157Z" fill="#6C863D" stroke="#F5F3F1"/>
<path opacity="0.973" fill-rule="evenodd" clip-rule="evenodd" d="M316.332 15.46C317.101 15.8787 317.809 16.4016 318.457 17.0288C321.45 20.3358 323.847 23.9093 325.647 27.7492C327.008 31.3691 326.246 34.6811 323.359 37.6852C321.392 39.6513 319.159 41.3942 316.659 42.9147C312.419 40.6114 309.314 37.5608 307.344 33.7631C306.601 31.0688 306.928 28.4541 308.325 25.9189C310.424 22.1196 313.093 18.6333 316.332 15.46Z" fill="#6C863D" stroke="#F5F3F1"/>
<path opacity="0.972" fill-rule="evenodd" clip-rule="evenodd" d="M295.09 36.1157C305.103 37.9779 312.239 42.6845 316.497 50.2353C320.895 43.0124 327.922 38.3058 337.577 36.1157C338.739 40.7449 337.922 45.1899 335.126 49.4509C334.431 50.2693 333.614 51.0101 332.675 51.6734C330.095 53.0106 327.372 54.1436 324.504 55.0726C321.076 56.9024 318.679 59.3864 317.314 62.5246C316.196 60.6101 314.78 58.8232 313.065 57.1644C312.085 56.5543 311.104 55.9441 310.124 55.3341C307.72 54.5465 305.324 53.7621 302.934 52.9808C298.655 50.9478 296.204 47.9409 295.58 43.9599C295.132 41.318 294.968 38.7033 295.09 36.1157Z" fill="#6C863D" stroke="#F5F3F1"/>
<path opacity="0.971" fill-rule="evenodd" clip-rule="evenodd" d="M295.09 54.1597C305.124 56.0418 312.26 60.7483 316.498 68.2793C320.967 60.8236 328.212 56.1171 338.232 54.1597C338.431 57.7986 337.94 61.3722 336.761 64.8801C335.81 66.8623 334.339 68.5619 332.349 69.9788C330.05 71.0864 327.653 72.045 325.159 72.855C321.285 74.6937 318.67 77.3521 317.315 80.83C315.748 77.3503 312.915 74.6919 308.817 72.855C301.413 71.5508 297 67.9338 295.581 62.0039C295.123 59.3685 294.96 56.7537 295.09 54.1597Z" fill="#6C863D" stroke="#F5F3F1"/>
<path opacity="0.972" fill-rule="evenodd" clip-rule="evenodd" d="M295.089 72.2002C305.058 74.1843 312.248 78.8908 316.659 86.3198C321.015 78.9598 328.097 74.2533 337.903 72.2002C338.639 76.7535 337.822 81.1112 335.452 85.2739C334.429 86.3546 333.285 87.3568 332.02 88.2808C329.417 89.3249 326.802 90.3708 324.176 91.4185C320.815 93.2664 318.527 95.7504 317.313 98.8705C314.944 93.8834 310.477 90.7894 303.913 89.5882C299.156 87.5097 296.378 84.3287 295.579 80.0444C295.247 77.6493 294.974 75.2526 294.762 72.8539C294.841 72.618 294.95 72.4002 295.089 72.2002Z" fill="#6C863D" stroke="#F5F3F1"/>
<path opacity="0.971" fill-rule="evenodd" clip-rule="evenodd" d="M295.089 90.2412C305.107 92.3069 312.243 97.1005 316.496 104.622C320.782 97.1426 327.918 92.3487 337.903 90.2412C338.794 95.1569 337.759 99.7761 334.798 104.099C331.826 106.576 328.286 108.362 324.176 109.46C320.942 111.393 318.654 113.877 317.313 116.912C315.886 114.419 313.925 112.196 311.43 110.244C308.815 109.082 306.091 108.123 303.259 107.368C298.883 105.257 296.323 102.163 295.579 98.0854C295.247 95.6903 294.974 93.2937 294.762 90.8949C294.841 90.659 294.95 90.4412 295.089 90.2412Z" fill="#6C863D" stroke="#F5F3F1"/>
<path opacity="0.971" fill-rule="evenodd" clip-rule="evenodd" d="M295.089 110.116C305.107 112.181 312.243 116.975 316.496 124.497C320.782 117.017 327.918 112.223 337.903 110.116C338.794 115.031 337.759 119.651 334.798 123.974C331.826 126.45 328.286 128.237 324.176 129.334C320.942 131.267 318.654 133.751 317.313 136.786C315.886 134.293 313.925 132.071 311.43 130.118C308.815 128.956 306.091 127.998 303.259 127.242C298.883 125.131 296.323 122.037 295.579 117.96C295.247 115.565 294.974 113.168 294.762 110.769C294.841 110.534 294.95 110.316 295.089 110.116Z" fill="#6C863D" stroke="#F5F3F1"/>
<path opacity="0.971" fill-rule="evenodd" clip-rule="evenodd" d="M295.089 128.157C305.107 130.222 312.243 135.016 316.496 142.538C320.782 135.058 327.918 130.264 337.903 128.157C338.794 133.072 337.759 137.692 334.798 142.015C331.826 144.491 328.286 146.278 324.176 147.375C320.942 149.308 318.654 151.792 317.313 154.827C315.886 152.334 313.925 150.112 311.43 148.159C308.815 146.997 306.091 146.039 303.259 145.283C298.883 143.172 296.323 140.078 295.579 136.001C295.247 133.606 294.974 131.209 294.762 128.81C294.841 128.575 294.95 128.357 295.089 128.157Z" fill="#6C863D" stroke="#F5F3F1"/>
</g>
<defs>
<clipPath id="clip0_2327_2058">
<rect width="337.564" height="169.367" fill="white" transform="translate(0.710938 0.459961)"/>
</clipPath>
</defs>
</svg>
