<svg width="338" height="140" viewBox="0 0 338 140" fill="none" xmlns="http://www.w3.org/2000/svg">
<g clip-path="url(#clip0_1524_673)">
<path opacity="0.973" fill-rule="evenodd" clip-rule="evenodd" d="M22.1601 37.9922C21.391 38.4109 20.6828 38.9338 20.0357 39.561C17.0426 42.8681 14.6456 46.4415 12.8454 50.2815C11.4839 53.9013 12.2467 57.2133 15.1332 60.2175C17.1004 62.1835 19.3336 63.9265 21.8332 65.4469C26.0732 63.1436 29.1781 60.093 31.1479 56.2954C31.8913 53.601 31.5644 50.9863 30.1674 48.4511C28.0687 44.6518 25.3996 41.1655 22.1601 37.9922Z" fill="#B13C26" stroke="#F5F3F1"/>
<path opacity="0.972" fill-rule="evenodd" clip-rule="evenodd" d="M43.4025 58.6475C33.3894 60.5097 26.2536 65.2162 21.9952 72.7671C17.5974 65.5441 10.5706 60.8376 0.914715 58.6475C-0.247161 63.2766 0.569913 67.7217 3.36594 71.9826C4.06143 72.801 4.8785 73.5418 5.81716 74.2052C8.39682 75.5423 11.1203 76.6753 13.9879 77.6043C17.416 79.4341 19.813 81.9181 21.1781 85.0563C22.2959 83.1418 23.7121 81.3549 25.4269 79.6961C26.4074 79.0861 27.3879 78.4758 28.3684 77.8658C30.7717 77.0782 33.1685 76.2938 35.5586 75.5125C39.8372 73.4796 42.2884 70.4726 42.9123 66.4917C43.3607 63.8497 43.5241 61.235 43.4025 58.6475Z" fill="#B13C26" stroke="#F5F3F1"/>
<path opacity="0.971" fill-rule="evenodd" clip-rule="evenodd" d="M43.4019 76.6914C33.3679 78.5735 26.2321 83.28 21.9946 90.811C17.5248 83.3553 10.28 78.6488 0.260403 76.6914C0.0616878 80.3303 0.551934 83.9039 1.73113 87.4118C2.68221 89.3941 4.15294 91.0936 6.14333 92.5106C8.44258 93.6182 10.8395 94.5767 13.3336 95.3868C17.2075 97.2255 19.8221 99.8839 21.1775 103.362C22.7446 99.882 25.5772 97.2236 29.675 95.3868C37.0795 94.0826 41.4917 90.4656 42.9116 84.5356C43.3689 81.9002 43.5323 79.2855 43.4019 76.6914Z" fill="#B13C26" stroke="#F5F3F1"/>
<path opacity="0.972" fill-rule="evenodd" clip-rule="evenodd" d="M43.4036 94.7324C33.434 96.7165 26.2438 101.423 21.8329 108.852C17.4769 101.492 10.3955 96.7855 0.589001 94.7324C-0.147022 99.2857 0.670052 103.643 3.04022 107.806C4.06352 108.887 5.20743 109.889 6.47193 110.813C9.07512 111.857 11.6898 112.903 14.3158 113.951C17.6773 115.799 19.9651 118.283 21.1792 121.403C23.5486 116.416 28.0152 113.322 34.5792 112.12C39.3366 110.042 42.1147 106.861 42.9134 102.577C43.2454 100.182 43.5178 97.7849 43.7305 95.3861C43.651 95.1503 43.542 94.9324 43.4036 94.7324Z" fill="#B13C26" stroke="#F5F3F1"/>
<path opacity="0.971" fill-rule="evenodd" clip-rule="evenodd" d="M43.4036 112.773C33.3851 114.839 26.2493 119.633 21.9963 127.155C17.7103 119.675 10.5743 114.881 0.589001 112.773C-0.301937 117.689 0.733132 122.308 3.69388 126.632C6.66607 129.108 10.2066 130.895 14.3158 131.992C17.5505 133.925 19.8383 136.409 21.1792 139.444C22.6063 136.951 24.5672 134.728 27.0622 132.776C29.6773 131.614 32.4008 130.655 35.2329 129.9C39.6092 127.789 42.1694 124.695 42.9134 120.618C43.2454 118.223 43.5178 115.826 43.7305 113.427C43.651 113.191 43.542 112.973 43.4036 112.773Z" fill="#B13C26" stroke="#F5F3F1"/>
<path opacity="0.973" fill-rule="evenodd" clip-rule="evenodd" d="M95.3009 18.1182C96.0699 18.5369 96.7781 19.0598 97.4253 19.687C100.418 22.994 102.815 26.5675 104.616 30.4074C105.977 34.0273 105.214 37.3393 102.328 40.3434C100.361 42.3095 98.1273 44.0524 95.6277 45.5729C91.3877 43.2696 88.2829 40.219 86.3131 36.4213C85.5697 33.727 85.8965 31.1123 87.2936 28.5771C89.3923 24.7778 92.0614 21.2915 95.3009 18.1182Z" fill="#B13C26" stroke="#F5F3F1"/>
<path opacity="0.972" fill-rule="evenodd" clip-rule="evenodd" d="M74.0584 38.7734C84.0715 40.6357 91.2073 45.3422 95.4657 52.893C99.8635 45.6701 106.89 40.9635 116.546 38.7734C117.708 43.4026 116.891 47.8476 114.095 52.1086C113.4 52.927 112.582 53.6678 111.644 54.3311C109.064 55.6683 106.341 56.8013 103.473 57.7303C100.045 59.5601 97.648 62.0441 96.2828 65.1823C95.1651 63.2678 93.7489 61.4809 92.034 59.8221C91.0535 59.2121 90.073 58.6018 89.0926 57.9918C86.6892 57.2042 84.2925 56.4198 81.9023 55.6385C77.6238 53.6055 75.1725 50.5986 74.5487 46.6177C74.1003 43.9757 73.9369 41.361 74.0584 38.7734Z" fill="#B13C26" stroke="#F5F3F1"/>
<path opacity="0.971" fill-rule="evenodd" clip-rule="evenodd" d="M74.0591 56.8174C84.0931 58.6995 91.2289 63.406 95.4664 70.937C99.9361 63.4813 107.181 58.7748 117.201 56.8174C117.399 60.4563 116.909 64.0299 115.73 67.5378C114.779 69.52 113.308 71.2196 111.318 72.6365C109.018 73.7442 106.621 74.7027 104.127 75.5128C100.253 77.3514 97.6388 80.0099 96.2835 83.4877C94.7163 80.008 91.8838 77.3496 87.7859 75.5128C80.3814 74.2085 75.9692 70.5916 74.5493 64.6616C74.092 62.0262 73.9286 59.4115 74.0591 56.8174Z" fill="#B13C26" stroke="#F5F3F1"/>
<path opacity="0.972" fill-rule="evenodd" clip-rule="evenodd" d="M74.0573 74.8584C84.0269 76.8425 91.2171 81.549 95.628 88.978C99.984 81.618 107.065 76.9115 116.872 74.8584C117.608 79.4117 116.791 83.7694 114.421 87.9321C113.397 89.0128 112.254 90.015 110.989 90.939C108.386 91.9831 105.771 93.029 103.145 94.0767C99.7837 95.9246 97.4959 98.4086 96.2817 101.529C93.9123 96.5416 89.4457 93.4476 82.8817 92.2464C78.1243 90.168 75.3463 86.9869 74.5475 82.7026C74.2155 80.3075 73.9431 77.9108 73.7305 75.5121C73.81 75.2762 73.9189 75.0584 74.0573 74.8584Z" fill="#B13C26" stroke="#F5F3F1"/>
<path opacity="0.971" fill-rule="evenodd" clip-rule="evenodd" d="M74.0573 92.8994C84.0759 94.9651 91.2116 99.7587 95.4646 107.28C99.7507 99.8008 106.887 95.0069 116.872 92.8994C117.763 97.8151 116.728 102.434 113.767 106.758C110.795 109.234 107.254 111.021 103.145 112.118C99.9105 114.051 97.6227 116.535 96.2817 119.57C94.8547 117.077 92.8937 114.854 90.3988 112.902C87.7837 111.74 85.0601 110.781 82.228 110.026C77.8518 107.915 75.2916 104.821 74.5475 100.744C74.2155 98.3485 73.9431 95.9519 73.7305 93.5531C73.81 93.3172 73.9189 93.0994 74.0573 92.8994Z" fill="#B13C26" stroke="#F5F3F1"/>
<path opacity="0.971" fill-rule="evenodd" clip-rule="evenodd" d="M74.0573 112.773C84.0759 114.839 91.2116 119.633 95.4646 127.154C99.7507 119.675 106.887 114.881 116.872 112.773C117.763 117.689 116.728 122.308 113.767 126.632C110.795 129.108 107.254 130.895 103.145 131.992C99.9105 133.925 97.6227 136.409 96.2817 139.444C94.8547 136.951 92.8937 134.728 90.3988 132.776C87.7837 131.614 85.0601 130.655 82.228 129.9C77.8518 127.789 75.2916 124.695 74.5475 120.618C74.2155 118.223 73.9431 115.826 73.7305 113.427C73.81 113.191 73.9189 112.973 74.0573 112.773Z" fill="#B13C26" stroke="#F5F3F1"/>
<path opacity="0.973" fill-rule="evenodd" clip-rule="evenodd" d="M168.813 0.0771484C169.582 0.495846 170.29 1.01879 170.937 1.64599C173.93 4.95303 176.327 8.52649 178.127 12.3664C179.489 15.9863 178.726 19.2983 175.839 22.3024C173.872 24.2684 171.639 26.0114 169.139 27.5319C164.899 25.2286 161.795 22.178 159.825 18.3803C159.081 15.686 159.408 13.0712 160.805 10.5361C162.904 6.73678 165.573 3.25047 168.813 0.0771484Z" fill="#B13C26" stroke="#F5F3F1"/>
<path opacity="0.972" fill-rule="evenodd" clip-rule="evenodd" d="M147.57 20.7324C157.583 22.5946 164.719 27.3012 168.977 34.852C173.375 27.6291 180.402 22.9225 190.058 20.7324C191.22 25.3616 190.403 29.8066 187.607 34.0676C186.911 34.886 186.094 35.6268 185.156 36.2901C182.576 37.6273 179.852 38.7603 176.985 39.6893C173.557 41.5191 171.16 44.0031 169.795 47.1413C168.677 45.2268 167.261 43.4399 165.546 41.7811C164.565 41.171 163.585 40.5608 162.604 39.9508C160.201 39.1632 157.804 38.3788 155.414 37.5975C151.135 35.5645 148.684 32.5576 148.06 28.5766C147.612 25.9347 147.449 23.32 147.57 20.7324Z" fill="#B13C26" stroke="#F5F3F1"/>
<path opacity="0.971" fill-rule="evenodd" clip-rule="evenodd" d="M147.571 38.7764C157.605 40.6585 164.741 45.365 168.978 52.896C173.448 45.4403 180.693 40.7338 190.712 38.7764C190.911 42.4153 190.421 45.9889 189.242 49.4968C188.29 51.479 186.82 53.1786 184.829 54.5955C182.53 55.7031 180.133 56.6617 177.639 57.4717C173.765 59.3104 171.151 61.9688 169.795 65.4467C168.228 61.967 165.396 59.3086 161.298 57.4717C153.893 56.1675 149.481 52.5505 148.061 46.6206C147.604 43.9852 147.44 41.3704 147.571 38.7764Z" fill="#B13C26" stroke="#F5F3F1"/>
<path opacity="0.972" fill-rule="evenodd" clip-rule="evenodd" d="M147.569 56.8174C157.539 58.8014 164.729 63.508 169.14 70.937C173.496 63.577 180.577 58.8705 190.384 56.8174C191.12 61.3707 190.303 65.7284 187.932 69.8911C186.909 70.9717 185.765 71.974 184.501 72.898C181.898 73.9421 179.283 74.988 176.657 76.0357C173.295 77.8835 171.008 80.3675 169.793 83.4877C167.424 78.5006 162.957 75.4066 156.393 74.2054C151.636 72.1269 148.858 68.9458 148.059 64.6616C147.727 62.2665 147.455 59.8698 147.242 57.4711C147.322 57.2352 147.431 57.0174 147.569 56.8174Z" fill="#B13C26" stroke="#F5F3F1"/>
<path opacity="0.971" fill-rule="evenodd" clip-rule="evenodd" d="M147.569 74.8584C157.588 76.924 164.723 81.7176 168.976 89.2395C173.262 81.7597 180.398 76.9659 190.384 74.8584C191.275 79.7741 190.24 84.3933 187.279 88.7165C184.307 91.1929 180.766 92.9796 176.657 94.0767C173.422 96.0098 171.134 98.4938 169.793 101.529C168.366 99.0358 166.405 96.8133 163.91 94.8611C161.295 93.6992 158.572 92.7403 155.74 91.9849C151.363 89.8738 148.803 86.7798 148.059 82.7026C147.727 80.3075 147.455 77.9108 147.242 75.5121C147.322 75.2762 147.431 75.0584 147.569 74.8584Z" fill="#B13C26" stroke="#F5F3F1"/>
<path opacity="0.971" fill-rule="evenodd" clip-rule="evenodd" d="M147.569 94.7324C157.588 96.7981 164.723 101.592 168.976 109.113C173.262 101.634 180.398 96.8399 190.384 94.7324C191.275 99.6481 190.24 104.267 187.279 108.591C184.307 111.067 180.766 112.854 176.657 113.951C173.422 115.884 171.134 118.368 169.793 121.403C168.366 118.91 166.405 116.687 163.91 114.735C161.295 113.573 158.572 112.614 155.74 111.859C151.363 109.748 148.803 106.654 148.059 102.577C147.727 100.182 147.455 97.7849 147.242 95.3861C147.322 95.1503 147.431 94.9324 147.569 94.7324Z" fill="#B13C26" stroke="#F5F3F1"/>
<path opacity="0.971" fill-rule="evenodd" clip-rule="evenodd" d="M147.569 112.773C157.588 114.839 164.723 119.633 168.976 127.154C173.262 119.675 180.398 114.881 190.384 112.773C191.275 117.689 190.24 122.308 187.279 126.632C184.307 129.108 180.766 130.895 176.657 131.992C173.422 133.925 171.134 136.409 169.793 139.444C168.366 136.951 166.405 134.728 163.91 132.776C161.295 131.614 158.572 130.655 155.74 129.9C151.363 127.789 148.803 124.695 148.059 120.618C147.727 118.223 147.455 115.826 147.242 113.427C147.322 113.191 147.431 112.973 147.569 112.773Z" fill="#B13C26" stroke="#F5F3F1"/>
<path opacity="0.973" fill-rule="evenodd" clip-rule="evenodd" d="M242.328 18.1182C243.097 18.5369 243.805 19.0598 244.453 19.687C247.446 22.994 249.843 26.5675 251.643 30.4074C253.004 34.0273 252.242 37.3393 249.355 40.3434C247.388 42.3095 245.155 44.0524 242.655 45.5729C238.415 43.2696 235.31 40.219 233.34 36.4213C232.597 33.727 232.924 31.1123 234.321 28.5771C236.42 24.7778 239.089 21.2915 242.328 18.1182Z" fill="#B13C26" stroke="#F5F3F1"/>
<path opacity="0.972" fill-rule="evenodd" clip-rule="evenodd" d="M221.086 38.7734C231.099 40.6357 238.235 45.3422 242.493 52.893C246.891 45.6701 253.918 40.9635 263.574 38.7734C264.735 43.4026 263.918 47.8476 261.122 52.1086C260.427 52.927 259.61 53.6678 258.671 54.3311C256.091 55.6683 253.368 56.8013 250.5 57.7303C247.072 59.5601 244.675 62.0441 243.31 65.1823C242.192 63.2678 240.776 61.4809 239.061 59.8221C238.081 59.2121 237.1 58.6018 236.12 57.9918C233.717 57.2042 231.32 56.4198 228.93 55.6385C224.651 53.6055 222.2 50.5986 221.576 46.6177C221.128 43.9757 220.964 41.361 221.086 38.7734Z" fill="#B13C26" stroke="#F5F3F1"/>
<path opacity="0.971" fill-rule="evenodd" clip-rule="evenodd" d="M221.086 56.8174C231.12 58.6995 238.256 63.406 242.494 70.937C246.963 63.4813 254.208 58.7748 264.228 56.8174C264.427 60.4563 263.936 64.0299 262.757 67.5378C261.806 69.52 260.335 71.2196 258.345 72.6365C256.046 73.7442 253.649 74.7027 251.155 75.5128C247.281 77.3514 244.666 80.0099 243.311 83.4877C241.744 80.008 238.911 77.3496 234.813 75.5128C227.409 74.2085 222.997 70.5916 221.577 64.6616C221.119 62.0262 220.956 59.4115 221.086 56.8174Z" fill="#B13C26" stroke="#F5F3F1"/>
<path opacity="0.972" fill-rule="evenodd" clip-rule="evenodd" d="M221.085 74.8584C231.054 76.8425 238.244 81.549 242.655 88.978C247.011 81.618 254.093 76.9115 263.899 74.8584C264.635 79.4117 263.818 83.7694 261.448 87.9321C260.425 89.0128 259.281 90.015 258.016 90.939C255.413 91.9831 252.799 93.029 250.172 94.0767C246.811 95.9246 244.523 98.4086 243.309 101.529C240.94 96.5416 236.473 93.4476 229.909 92.2464C225.152 90.168 222.374 86.9869 221.575 82.7026C221.243 80.3075 220.97 77.9108 220.758 75.5121C220.837 75.2762 220.946 75.0584 221.085 74.8584Z" fill="#B13C26" stroke="#F5F3F1"/>
<path opacity="0.971" fill-rule="evenodd" clip-rule="evenodd" d="M221.085 92.8994C231.103 94.9651 238.239 99.7587 242.492 107.28C246.778 99.8008 253.914 95.0069 263.899 92.8994C264.79 97.8151 263.755 102.434 260.794 106.758C257.822 109.234 254.282 111.021 250.172 112.118C246.938 114.051 244.65 116.535 243.309 119.57C241.882 117.077 239.921 114.854 237.426 112.902C234.811 111.74 232.087 110.781 229.255 110.026C224.879 107.915 222.319 104.821 221.575 100.744C221.243 98.3485 220.97 95.9519 220.758 93.5531C220.837 93.3172 220.946 93.0994 221.085 92.8994Z" fill="#B13C26" stroke="#F5F3F1"/>
<path opacity="0.971" fill-rule="evenodd" clip-rule="evenodd" d="M221.085 112.773C231.103 114.839 238.239 119.633 242.492 127.154C246.778 119.675 253.914 114.881 263.899 112.773C264.79 117.689 263.755 122.308 260.794 126.632C257.822 129.108 254.282 130.895 250.172 131.992C246.938 133.925 244.65 136.409 243.309 139.444C241.882 136.951 239.921 134.728 237.426 132.776C234.811 131.614 232.087 130.655 229.255 129.9C224.879 127.789 222.319 124.695 221.575 120.618C221.243 118.223 220.97 115.826 220.758 113.427C220.837 113.191 220.946 112.973 221.085 112.773Z" fill="#B13C26" stroke="#F5F3F1"/>
<path opacity="0.973" fill-rule="evenodd" clip-rule="evenodd" d="M316.211 37.9922C315.442 38.4109 314.734 38.9338 314.086 39.561C311.093 42.8681 308.696 46.4415 306.896 50.2815C305.535 53.9013 306.297 57.2133 309.184 60.2175C311.151 62.1835 313.384 63.9265 315.884 65.4469C320.124 63.1436 323.229 60.093 325.199 56.2954C325.942 53.601 325.615 50.9863 324.218 48.4511C322.119 44.6518 319.45 41.1655 316.211 37.9922Z" fill="#B13C26" stroke="#F5F3F1"/>
<path opacity="0.972" fill-rule="evenodd" clip-rule="evenodd" d="M337.453 58.6475C327.44 60.5097 320.304 65.2162 316.046 72.7671C311.648 65.5441 304.621 60.8376 294.965 58.6475C293.804 63.2766 294.621 67.7217 297.417 71.9826C298.112 72.801 298.929 73.5418 299.868 74.2052C302.448 75.5423 305.171 76.6753 308.039 77.6043C311.467 79.4341 313.864 81.9181 315.229 85.0563C316.347 83.1418 317.763 81.3549 319.478 79.6961C320.458 79.0861 321.439 78.4758 322.419 77.8658C324.822 77.0782 327.219 76.2938 329.609 75.5125C333.888 73.4796 336.339 70.4726 336.963 66.4917C337.411 63.8497 337.575 61.235 337.453 58.6475Z" fill="#B13C26" stroke="#F5F3F1"/>
<path opacity="0.971" fill-rule="evenodd" clip-rule="evenodd" d="M337.453 76.6914C327.419 78.5735 320.283 83.28 316.045 90.811C311.576 83.3553 304.331 78.6488 294.311 76.6914C294.112 80.3303 294.603 83.9039 295.782 87.4118C296.733 89.3941 298.204 91.0936 300.194 92.5106C302.493 93.6182 304.89 94.5767 307.384 95.3868C311.258 97.2255 313.873 99.8839 315.228 103.362C316.795 99.882 319.628 97.2236 323.726 95.3868C331.13 94.0826 335.542 90.4656 336.962 84.5356C337.42 81.9002 337.583 79.2855 337.453 76.6914Z" fill="#B13C26" stroke="#F5F3F1"/>
<path opacity="0.972" fill-rule="evenodd" clip-rule="evenodd" d="M337.454 94.7324C327.485 96.7165 320.295 101.423 315.884 108.852C311.528 101.492 304.446 96.7855 294.64 94.7324C293.904 99.2857 294.721 103.643 297.091 107.806C298.114 108.887 299.258 109.889 300.523 110.813C303.126 111.857 305.741 112.903 308.367 113.951C311.728 115.799 314.016 118.283 315.23 121.403C317.599 116.416 322.066 113.322 328.63 112.12C333.387 110.042 336.165 106.861 336.964 102.577C337.296 100.182 337.569 97.7849 337.781 95.3861C337.702 95.1503 337.593 94.9324 337.454 94.7324Z" fill="#B13C26" stroke="#F5F3F1"/>
<path opacity="0.971" fill-rule="evenodd" clip-rule="evenodd" d="M337.454 112.773C327.436 114.839 320.3 119.633 316.047 127.155C311.761 119.675 304.625 114.881 294.64 112.773C293.749 117.689 294.784 122.308 297.745 126.632C300.717 129.108 304.257 130.895 308.367 131.992C311.601 133.925 313.889 136.409 315.23 139.444C316.657 136.951 318.618 134.728 321.113 132.776C323.728 131.614 326.452 130.655 329.284 129.9C333.66 127.789 336.22 124.695 336.964 120.618C337.296 118.223 337.569 115.826 337.781 113.427C337.702 113.191 337.593 112.973 337.454 112.773Z" fill="#B13C26" stroke="#F5F3F1"/>
</g>
<defs>
<clipPath id="clip0_1524_673">
<rect width="337.562" height="139.367" fill="white" transform="translate(0.21875 0.0771484)"/>
</clipPath>
</defs>
</svg>
